<svg xmlns="http://www.w3.org/2000/svg" xmlns:xlink="http://www.w3.org/1999/xlink" width="350" zoomAndPan="magnify" viewBox="0 0 263.04 374.999991" height="500" preserveAspectRatio="xMidYMid meet" version="1.2"><defs><clipPath id="74dc506b0b"><path d="M 6 291 L 256 291 L 256 374.316406 L 6 374.316406 Z M 6 291 "/></clipPath><clipPath id="a5b7cc536a"><path d="M 91 77.21875 L 171 77.21875 L 171 123 L 91 123 Z M 91 77.21875 "/></clipPath></defs><g id="534eef0423"><g clip-rule="nonzero" clip-path="url(#74dc506b0b)"><path style=" stroke:none;fill-rule:nonzero;fill:#7daf67;fill-opacity:1;" d="M 255.417969 332.691406 C 255.417969 333.371094 255.367188 334.050781 255.265625 334.730469 C 255.164062 335.410156 255.015625 336.089844 254.816406 336.765625 C 254.617188 337.445312 254.367188 338.121094 254.066406 338.792969 C 253.765625 339.464844 253.417969 340.136719 253.019531 340.804688 C 252.621094 341.472656 252.175781 342.132812 251.679688 342.792969 C 251.183594 343.453125 250.640625 344.109375 250.046875 344.761719 C 249.457031 345.414062 248.816406 346.058594 248.128906 346.699219 C 247.441406 347.339844 246.707031 347.976562 245.925781 348.605469 C 245.148438 349.234375 244.320312 349.855469 243.449219 350.46875 C 242.574219 351.085938 241.660156 351.691406 240.695312 352.292969 C 239.734375 352.894531 238.730469 353.484375 237.679688 354.066406 C 236.632812 354.652344 235.542969 355.226562 234.40625 355.792969 C 233.273438 356.359375 232.101562 356.914062 230.886719 357.460938 C 229.667969 358.007812 228.414062 358.542969 227.121094 359.070312 C 225.828125 359.597656 224.496094 360.113281 223.125 360.617188 C 221.753906 361.121094 220.347656 361.613281 218.90625 362.09375 C 217.460938 362.574219 215.984375 363.042969 214.472656 363.5 C 212.960938 363.957031 211.417969 364.402344 209.839844 364.835938 C 208.265625 365.265625 206.65625 365.683594 205.019531 366.089844 C 203.378906 366.496094 201.710938 366.886719 200.015625 367.265625 C 198.320312 367.644531 196.597656 368.007812 194.847656 368.355469 C 193.097656 368.707031 191.320312 369.042969 189.523438 369.363281 C 187.722656 369.683594 185.902344 369.988281 184.058594 370.28125 C 182.214844 370.570312 180.347656 370.847656 178.464844 371.105469 C 176.578125 371.367188 174.675781 371.613281 172.753906 371.84375 C 170.835938 372.070312 168.898438 372.285156 166.945312 372.480469 C 164.992188 372.679688 163.027344 372.859375 161.050781 373.027344 C 159.070312 373.191406 157.082031 373.339844 155.078125 373.472656 C 153.078125 373.605469 151.070312 373.722656 149.050781 373.824219 C 147.03125 373.921875 145.007812 374.003906 142.980469 374.074219 C 140.949219 374.140625 138.914062 374.1875 136.875 374.222656 C 134.839844 374.257812 132.800781 374.273438 130.761719 374.273438 C 128.71875 374.273438 126.679688 374.257812 124.644531 374.222656 C 122.605469 374.1875 120.570312 374.140625 118.542969 374.074219 C 116.511719 374.003906 114.488281 373.921875 112.46875 373.824219 C 110.453125 373.722656 108.441406 373.605469 106.441406 373.472656 C 104.441406 373.339844 102.449219 373.191406 100.472656 373.027344 C 98.492188 372.859375 96.527344 372.679688 94.574219 372.480469 C 92.621094 372.285156 90.6875 372.070312 88.765625 371.84375 C 86.84375 371.613281 84.941406 371.367188 83.054688 371.105469 C 81.171875 370.847656 79.308594 370.570312 77.464844 370.28125 C 75.617188 369.988281 73.796875 369.683594 71.996094 369.363281 C 70.199219 369.042969 68.425781 368.707031 66.675781 368.355469 C 64.925781 368.007812 63.203125 367.644531 61.503906 367.265625 C 59.808594 366.886719 58.140625 366.496094 56.503906 366.089844 C 54.863281 365.683594 53.257812 365.265625 51.679688 364.835938 C 50.101562 364.402344 48.558594 363.957031 47.046875 363.5 C 45.535156 363.042969 44.058594 362.574219 42.617188 362.09375 C 41.171875 361.613281 39.765625 361.121094 38.394531 360.617188 C 37.027344 360.113281 35.695312 359.597656 34.398438 359.070312 C 33.105469 358.542969 31.851562 358.007812 30.636719 357.460938 C 29.421875 356.914062 28.246094 356.359375 27.113281 355.792969 C 25.980469 355.226562 24.886719 354.652344 23.839844 354.070312 C 22.789062 353.484375 21.785156 352.894531 20.824219 352.292969 C 19.863281 351.691406 18.945312 351.085938 18.074219 350.46875 C 17.199219 349.855469 16.375 349.234375 15.59375 348.605469 C 14.8125 347.976562 14.078125 347.339844 13.390625 346.699219 C 12.703125 346.058594 12.0625 345.414062 11.472656 344.761719 C 10.878906 344.109375 10.335938 343.453125 9.839844 342.792969 C 9.34375 342.132812 8.898438 341.472656 8.5 340.804688 C 8.101562 340.136719 7.753906 339.464844 7.453125 338.792969 C 7.152344 338.121094 6.90625 337.445312 6.703125 336.765625 C 6.503906 336.089844 6.355469 335.410156 6.253906 334.730469 C 6.15625 334.050781 6.105469 333.371094 6.105469 332.691406 C 6.105469 332.011719 6.15625 331.332031 6.253906 330.652344 C 6.355469 329.972656 6.503906 329.292969 6.703125 328.617188 C 6.90625 327.9375 7.152344 327.261719 7.453125 326.589844 C 7.753906 325.917969 8.101562 325.246094 8.5 324.578125 C 8.898438 323.910156 9.34375 323.25 9.839844 322.589844 C 10.335938 321.929688 10.878906 321.273438 11.472656 320.621094 C 12.0625 319.96875 12.703125 319.324219 13.390625 318.683594 C 14.078125 318.042969 14.8125 317.40625 15.59375 316.777344 C 16.375 316.148438 17.199219 315.527344 18.074219 314.914062 C 18.945312 314.296875 19.863281 313.691406 20.824219 313.089844 C 21.785156 312.488281 22.789062 311.898438 23.839844 311.3125 C 24.886719 310.730469 25.980469 310.15625 27.113281 309.589844 C 28.246094 309.023438 29.421875 308.46875 30.636719 307.921875 C 31.851562 307.375 33.105469 306.839844 34.398438 306.3125 C 35.695312 305.785156 37.027344 305.269531 38.394531 304.765625 C 39.765625 304.261719 41.171875 303.769531 42.617188 303.289062 C 44.058594 302.808594 45.535156 302.339844 47.046875 301.882812 C 48.558594 301.425781 50.101562 300.980469 51.679688 300.546875 C 53.257812 300.117188 54.863281 299.699219 56.503906 299.292969 C 58.140625 298.886719 59.808594 298.496094 61.503906 298.117188 C 63.203125 297.738281 64.925781 297.375 66.675781 297.027344 C 68.425781 296.675781 70.199219 296.339844 71.996094 296.019531 C 73.796875 295.699219 75.617188 295.394531 77.464844 295.101562 C 79.308594 294.8125 81.171875 294.535156 83.054688 294.273438 C 84.941406 294.015625 86.84375 293.769531 88.765625 293.539062 C 90.6875 293.3125 92.621094 293.097656 94.574219 292.902344 C 96.527344 292.703125 98.492188 292.523438 100.472656 292.355469 C 102.449219 292.191406 104.441406 292.042969 106.441406 291.910156 C 108.441406 291.777344 110.453125 291.660156 112.46875 291.558594 C 114.488281 291.460938 116.511719 291.378906 118.542969 291.308594 C 120.570312 291.242188 122.605469 291.195312 124.644531 291.160156 C 126.679688 291.125 128.71875 291.109375 130.761719 291.109375 C 132.800781 291.109375 134.839844 291.125 136.875 291.160156 C 138.914062 291.195312 140.949219 291.242188 142.980469 291.308594 C 145.007812 291.378906 147.03125 291.460938 149.050781 291.558594 C 151.070312 291.660156 153.078125 291.777344 155.078125 291.910156 C 157.082031 292.042969 159.070312 292.191406 161.050781 292.355469 C 163.027344 292.523438 164.992188 292.703125 166.945312 292.902344 C 168.898438 293.097656 170.835938 293.3125 172.753906 293.539062 C 174.675781 293.769531 176.578125 294.015625 178.464844 294.273438 C 180.347656 294.535156 182.214844 294.8125 184.058594 295.101562 C 185.902344 295.394531 187.722656 295.699219 189.523438 296.019531 C 191.320312 296.339844 193.097656 296.675781 194.847656 297.027344 C 196.597656 297.375 198.320312 297.738281 200.015625 298.117188 C 201.710938 298.496094 203.378906 298.886719 205.019531 299.292969 C 206.65625 299.699219 208.265625 300.117188 209.839844 300.546875 C 211.417969 300.980469 212.960938 301.425781 214.472656 301.882812 C 215.984375 302.339844 217.460938 302.808594 218.90625 303.289062 C 220.347656 303.769531 221.753906 304.261719 223.125 304.765625 C 224.496094 305.269531 225.828125 305.785156 227.121094 306.3125 C 228.414062 306.839844 229.667969 307.375 230.886719 307.921875 C 232.101562 308.46875 233.273438 309.023438 234.40625 309.589844 C 235.542969 310.15625 236.632812 310.730469 237.679688 311.3125 C 238.730469 311.898438 239.734375 312.488281 240.695312 313.089844 C 241.660156 313.691406 242.574219 314.296875 243.449219 314.914062 C 244.320312 315.527344 245.148438 316.148438 245.925781 316.777344 C 246.707031 317.40625 247.441406 318.042969 248.128906 318.683594 C 248.816406 319.324219 249.457031 319.96875 250.046875 320.621094 C 250.640625 321.273438 251.183594 321.929688 251.679688 322.589844 C 252.175781 323.25 252.621094 323.910156 253.019531 324.578125 C 253.417969 325.246094 253.765625 325.917969 254.066406 326.589844 C 254.367188 327.261719 254.617188 327.9375 254.816406 328.617188 C 255.015625 329.292969 255.164062 329.972656 255.265625 330.652344 C 255.367188 331.332031 255.417969 332.011719 255.417969 332.691406 Z M 255.417969 332.691406 "/></g><path style=" stroke:none;fill-rule:evenodd;fill:#08a220;fill-opacity:1;" d="M 211.722656 45.402344 C 167.007812 0.679688 94.511719 0.679688 49.796875 45.402344 C 11.199219 84.007812 5.214844 144.496094 35.5 189.917969 L 130.761719 332.78125 L 226.019531 189.917969 C 256.304688 144.496094 250.320312 84.007812 211.722656 45.402344 Z M 130.761719 183.75 C 163.441406 183.75 189.9375 157.25 189.9375 124.5625 C 189.9375 91.875 163.441406 65.375 130.761719 65.375 C 98.078125 65.375 71.582031 91.875 71.582031 124.5625 C 71.582031 157.25 98.078125 183.75 130.761719 183.75 Z M 130.761719 183.75 "/><path style=" stroke:none;fill-rule:nonzero;fill:#1c2120;fill-opacity:1;" d="M 148.941406 155.632812 C 148.175781 155.632812 147.550781 155.011719 147.550781 154.242188 L 147.550781 133.488281 C 147.550781 132.722656 148.175781 132.097656 148.941406 132.097656 C 149.710938 132.097656 150.335938 132.722656 150.335938 133.488281 L 150.335938 154.242188 C 150.335938 155.011719 149.710938 155.632812 148.941406 155.632812 Z M 148.941406 155.632812 "/><path style=" stroke:none;fill-rule:nonzero;fill:#1c2120;fill-opacity:1;" d="M 112.414062 155.632812 C 111.644531 155.632812 111.019531 155.011719 111.019531 154.242188 L 111.019531 142.921875 C 111.019531 142.152344 111.644531 141.53125 112.414062 141.53125 L 148.941406 141.53125 C 149.710938 141.53125 150.335938 142.152344 150.335938 142.921875 C 150.335938 143.691406 149.710938 144.3125 148.941406 144.3125 L 113.804688 144.3125 L 113.804688 154.242188 C 113.804688 155.011719 113.179688 155.632812 112.414062 155.632812 Z M 112.414062 155.632812 "/><path style=" stroke:none;fill-rule:nonzero;fill:#1c2120;fill-opacity:1;" d="M 142.253906 144.3125 C 141.484375 144.3125 140.863281 143.691406 140.863281 142.921875 C 140.863281 138.65625 144.332031 135.183594 148.601562 135.183594 L 148.941406 135.183594 C 149.710938 135.183594 150.335938 135.808594 150.335938 136.578125 C 150.335938 137.34375 149.710938 137.96875 148.941406 137.96875 L 148.601562 137.96875 C 145.867188 137.96875 143.644531 140.191406 143.644531 142.921875 C 143.644531 143.691406 143.023438 144.3125 142.253906 144.3125 Z M 142.253906 144.3125 "/><path style=" stroke:none;fill-rule:nonzero;fill:#1c2120;fill-opacity:1;" d="M 148.941406 150.660156 L 112.414062 150.660156 C 111.644531 150.660156 111.019531 150.035156 111.019531 149.269531 C 111.019531 148.5 111.644531 147.875 112.414062 147.875 L 148.941406 147.875 C 149.710938 147.875 150.335938 148.5 150.335938 149.269531 C 150.335938 150.035156 149.710938 150.660156 148.941406 150.660156 Z M 148.941406 150.660156 "/><path style=" stroke:none;fill-rule:nonzero;fill:#1c2120;fill-opacity:1;" d="M 158.65625 165.066406 L 102.765625 165.066406 C 101.609375 165.066406 100.523438 164.617188 99.703125 163.796875 C 98.886719 162.980469 98.4375 161.890625 98.441406 160.734375 L 98.484375 118.28125 C 98.484375 117.515625 99.109375 116.894531 99.875 116.894531 C 99.875 116.894531 99.875 116.894531 99.878906 116.894531 C 100.644531 116.894531 101.269531 117.515625 101.269531 118.285156 L 101.222656 160.738281 C 101.222656 161.152344 101.382812 161.539062 101.675781 161.832031 C 101.964844 162.121094 102.351562 162.28125 102.765625 162.28125 L 158.65625 162.28125 C 159.507812 162.28125 160.199219 161.589844 160.199219 160.742188 L 160.246094 118.261719 C 160.246094 117.492188 160.871094 116.871094 161.636719 116.871094 C 161.636719 116.871094 161.636719 116.871094 161.640625 116.871094 C 162.40625 116.871094 163.03125 117.496094 163.027344 118.261719 L 162.980469 160.746094 C 162.980469 163.128906 161.039062 165.066406 158.65625 165.066406 Z M 158.65625 165.066406 "/><g clip-rule="nonzero" clip-path="url(#a5b7cc536a)"><path style=" stroke:none;fill-rule:nonzero;fill:#1c2120;fill-opacity:1;" d="M 96.035156 122.007812 C 94.746094 122.007812 93.457031 121.515625 92.476562 120.53125 C 90.515625 118.570312 90.519531 115.378906 92.480469 113.417969 L 127.273438 78.6875 C 128.222656 77.738281 129.484375 77.214844 130.828125 77.214844 C 130.828125 77.214844 130.828125 77.214844 130.832031 77.214844 C 132.175781 77.21875 133.4375 77.742188 134.386719 78.695312 L 169.050781 113.417969 C 171.011719 115.382812 171.007812 118.574219 169.046875 120.535156 C 167.082031 122.492188 163.890625 122.492188 161.933594 120.527344 L 132.40625 90.953125 C 131.53125 90.074219 130.105469 90.074219 129.230469 90.949219 L 99.589844 120.539062 C 98.609375 121.515625 97.320312 122.007812 96.035156 122.007812 Z M 130.828125 80 C 130.226562 80 129.664062 80.234375 129.238281 80.65625 L 94.445312 115.386719 C 93.570312 116.261719 93.570312 117.6875 94.445312 118.566406 L 93.460938 119.550781 L 94.445312 118.566406 C 95.320312 119.441406 96.746094 119.445312 97.621094 118.570312 L 127.261719 88.980469 C 129.226562 87.019531 132.417969 87.023438 134.378906 88.988281 L 163.902344 118.5625 C 164.324219 118.988281 164.890625 119.222656 165.488281 119.222656 C 165.492188 119.222656 165.492188 119.222656 165.492188 119.222656 C 166.089844 119.222656 166.65625 118.988281 167.078125 118.566406 C 167.957031 117.6875 167.957031 116.261719 167.082031 115.386719 L 132.417969 80.660156 C 131.992188 80.234375 131.429688 80 130.828125 80 Z M 130.828125 80 "/></g><path style=" stroke:none;fill-rule:nonzero;fill:#1c2120;fill-opacity:1;" d="M 103.152344 106.125 C 102.382812 106.125 101.761719 105.5 101.761719 104.730469 L 101.761719 88.898438 C 101.761719 88.128906 102.382812 87.507812 103.152344 87.507812 L 108.984375 87.507812 C 109.75 87.507812 110.375 88.128906 110.375 88.898438 L 110.375 98.910156 C 110.375 99.679688 109.75 100.300781 108.984375 100.300781 C 108.214844 100.300781 107.589844 99.679688 107.589844 98.910156 L 107.589844 90.289062 L 104.542969 90.289062 L 104.542969 104.730469 C 104.542969 105.5 103.921875 106.125 103.152344 106.125 Z M 103.152344 106.125 "/><path style=" stroke:none;fill-rule:nonzero;fill:#1c2120;fill-opacity:1;" d="M 122.53125 131.109375 C 116.183594 131.109375 111.019531 125.945312 111.019531 119.597656 C 111.019531 113.25 116.183594 108.085938 122.53125 108.085938 C 128.878906 108.085938 134.042969 113.25 134.042969 119.597656 C 134.042969 125.945312 128.878906 131.109375 122.53125 131.109375 Z M 122.53125 110.871094 C 117.71875 110.871094 113.804688 114.785156 113.804688 119.597656 C 113.804688 124.410156 117.71875 128.324219 122.53125 128.324219 C 127.34375 128.324219 131.257812 124.410156 131.257812 119.597656 C 131.257812 114.785156 127.34375 110.871094 122.53125 110.871094 Z M 122.53125 110.871094 "/><path style=" stroke:none;fill-rule:nonzero;fill:#1c2120;fill-opacity:1;" d="M 125.789062 120.988281 L 122.53125 120.988281 C 121.761719 120.988281 121.140625 120.367188 121.140625 119.597656 L 121.140625 114.28125 C 121.140625 113.511719 121.761719 112.890625 122.53125 112.890625 C 123.300781 112.890625 123.921875 113.511719 123.921875 114.28125 L 123.921875 118.207031 L 125.789062 118.207031 C 126.558594 118.207031 127.183594 118.828125 127.183594 119.597656 C 127.183594 120.367188 126.558594 120.988281 125.789062 120.988281 Z M 125.789062 120.988281 "/></g></svg>