<svg xmlns="http://www.w3.org/2000/svg" xmlns:xlink="http://www.w3.org/1999/xlink" width="500" zoomAndPan="magnify" viewBox="0 0 375 374.999991" height="500" preserveAspectRatio="xMidYMid meet" version="1.2"><defs><clipPath id="2cfad7ea69"><path d="M 150.453125 197 L 224.703125 197 L 224.703125 222.359375 L 150.453125 222.359375 Z M 150.453125 197 "/></clipPath><clipPath id="9fc4bc1910"><path d="M 177 146 L 198 146 L 198 160.929688 L 177 160.929688 Z M 177 146 "/></clipPath><clipPath id="a609bb98c4"><path d="M 175.625 134.679688 L 199.625 134.679688 L 199.625 148 L 175.625 148 Z M 175.625 134.679688 "/></clipPath></defs><g id="78014442a4"><g clip-rule="nonzero" clip-path="url(#2cfad7ea69)"><path style=" stroke:none;fill-rule:nonzero;fill:#ef94ca;fill-opacity:1;" d="M 224.261719 210.03125 C 224.261719 210.433594 224.203125 210.835938 224.085938 211.234375 C 223.96875 211.632812 223.792969 212.03125 223.554688 212.425781 C 223.320312 212.820312 223.03125 213.207031 222.679688 213.59375 C 222.332031 213.976562 221.925781 214.355469 221.464844 214.726562 C 221.003906 215.097656 220.488281 215.460938 219.921875 215.8125 C 219.355469 216.167969 218.734375 216.511719 218.066406 216.847656 C 217.398438 217.179688 216.679688 217.503906 215.917969 217.8125 C 215.152344 218.125 214.347656 218.421875 213.496094 218.703125 C 212.644531 218.988281 211.75 219.257812 210.820312 219.511719 C 209.890625 219.769531 208.925781 220.007812 207.921875 220.230469 C 206.921875 220.453125 205.890625 220.660156 204.828125 220.847656 C 203.765625 221.039062 202.679688 221.210938 201.566406 221.363281 C 200.453125 221.515625 199.320312 221.652344 198.167969 221.769531 C 197.015625 221.886719 195.851562 221.984375 194.667969 222.0625 C 193.488281 222.140625 192.296875 222.199219 191.101562 222.238281 C 189.902344 222.277344 188.699219 222.296875 187.496094 222.296875 C 186.292969 222.296875 185.089844 222.277344 183.890625 222.238281 C 182.695312 222.199219 181.503906 222.140625 180.324219 222.0625 C 179.140625 221.984375 177.976562 221.886719 176.824219 221.769531 C 175.671875 221.652344 174.539062 221.515625 173.425781 221.363281 C 172.3125 221.210938 171.226562 221.039062 170.164062 220.847656 C 169.101562 220.660156 168.070312 220.453125 167.070312 220.230469 C 166.070312 220.007812 165.101562 219.769531 164.171875 219.511719 C 163.242188 219.257812 162.351562 218.988281 161.5 218.703125 C 160.648438 218.421875 159.839844 218.125 159.074219 217.8125 C 158.3125 217.503906 157.59375 217.179688 156.925781 216.847656 C 156.257812 216.511719 155.636719 216.167969 155.070312 215.8125 C 154.503906 215.460938 153.988281 215.097656 153.527344 214.726562 C 153.066406 214.355469 152.664062 213.976562 152.3125 213.59375 C 151.964844 213.207031 151.671875 212.820312 151.4375 212.425781 C 151.199219 212.03125 151.023438 211.632812 150.90625 211.234375 C 150.789062 210.835938 150.730469 210.433594 150.730469 210.03125 C 150.730469 209.632812 150.789062 209.230469 150.90625 208.832031 C 151.023438 208.429688 151.199219 208.035156 151.4375 207.640625 C 151.671875 207.246094 151.964844 206.855469 152.3125 206.472656 C 152.664062 206.089844 153.066406 205.710938 153.527344 205.339844 C 153.988281 204.96875 154.503906 204.605469 155.070312 204.25 C 155.636719 203.898438 156.257812 203.554688 156.925781 203.21875 C 157.59375 202.886719 158.3125 202.5625 159.074219 202.253906 C 159.839844 201.941406 160.648438 201.644531 161.5 201.359375 C 162.351562 201.078125 163.242188 200.808594 164.171875 200.550781 C 165.101562 200.296875 166.070312 200.058594 167.070312 199.835938 C 168.070312 199.613281 169.101562 199.40625 170.164062 199.214844 C 171.226562 199.027344 172.3125 198.855469 173.425781 198.703125 C 174.539062 198.546875 175.671875 198.414062 176.824219 198.296875 C 177.976562 198.179688 179.140625 198.082031 180.324219 198.003906 C 181.503906 197.925781 182.695312 197.867188 183.890625 197.828125 C 185.089844 197.789062 186.292969 197.769531 187.496094 197.769531 C 188.699219 197.769531 189.902344 197.789062 191.101562 197.828125 C 192.296875 197.867188 193.488281 197.925781 194.667969 198.003906 C 195.851562 198.082031 197.015625 198.179688 198.167969 198.296875 C 199.320312 198.414062 200.453125 198.546875 201.566406 198.703125 C 202.679688 198.855469 203.765625 199.027344 204.828125 199.214844 C 205.890625 199.40625 206.921875 199.613281 207.921875 199.835938 C 208.925781 200.058594 209.890625 200.296875 210.820312 200.550781 C 211.75 200.808594 212.644531 201.078125 213.496094 201.359375 C 214.347656 201.644531 215.152344 201.941406 215.917969 202.253906 C 216.679688 202.5625 217.398438 202.886719 218.066406 203.21875 C 218.734375 203.554688 219.355469 203.898438 219.921875 204.25 C 220.488281 204.605469 221.003906 204.96875 221.464844 205.339844 C 221.925781 205.710938 222.332031 206.089844 222.679688 206.472656 C 223.03125 206.855469 223.320312 207.246094 223.554688 207.640625 C 223.792969 208.035156 223.96875 208.429688 224.085938 208.832031 C 224.203125 209.230469 224.261719 209.632812 224.261719 210.03125 Z M 224.261719 210.03125 "/></g><path style=" stroke:none;fill-rule:evenodd;fill:#e61f93;fill-opacity:1;" d="M 211.375 125.296875 C 198.1875 112.105469 176.804688 112.105469 163.617188 125.296875 C 152.230469 136.683594 150.46875 154.523438 159.398438 167.921875 L 187.496094 210.058594 L 215.59375 167.921875 C 224.527344 154.523438 222.761719 136.683594 211.375 125.296875 Z M 187.496094 166.101562 C 197.136719 166.101562 204.949219 158.285156 204.949219 148.644531 C 204.949219 139.003906 197.136719 131.1875 187.496094 131.1875 C 177.855469 131.1875 170.042969 139.003906 170.042969 148.644531 C 170.042969 158.285156 177.855469 166.101562 187.496094 166.101562 Z M 187.496094 166.101562 "/><path style=" stroke:none;fill-rule:nonzero;fill:#ab1d79;fill-opacity:1;" d="M 192.859375 157.808594 C 192.632812 157.808594 192.449219 157.625 192.449219 157.398438 L 192.449219 151.277344 C 192.449219 151.050781 192.632812 150.867188 192.859375 150.867188 C 193.085938 150.867188 193.269531 151.050781 193.269531 151.277344 L 193.269531 157.398438 C 193.269531 157.625 193.085938 157.808594 192.859375 157.808594 Z M 192.859375 157.808594 "/><path style=" stroke:none;fill-rule:nonzero;fill:#ab1d79;fill-opacity:1;" d="M 182.085938 157.808594 C 181.859375 157.808594 181.675781 157.625 181.675781 157.398438 L 181.675781 154.0625 C 181.675781 153.835938 181.859375 153.652344 182.085938 153.652344 L 192.859375 153.652344 C 193.085938 153.652344 193.269531 153.835938 193.269531 154.0625 C 193.269531 154.289062 193.085938 154.472656 192.859375 154.472656 L 182.496094 154.472656 L 182.496094 157.398438 C 182.496094 157.625 182.3125 157.808594 182.085938 157.808594 Z M 182.085938 157.808594 "/><path style=" stroke:none;fill-rule:nonzero;fill:#ab1d79;fill-opacity:1;" d="M 190.886719 154.472656 C 190.660156 154.472656 190.476562 154.289062 190.476562 154.0625 C 190.476562 152.800781 191.5 151.777344 192.757812 151.777344 L 192.859375 151.777344 C 193.085938 151.777344 193.269531 151.960938 193.269531 152.1875 C 193.269531 152.414062 193.085938 152.601562 192.859375 152.601562 L 192.757812 152.601562 C 191.953125 152.601562 191.296875 153.253906 191.296875 154.0625 C 191.296875 154.289062 191.113281 154.472656 190.886719 154.472656 Z M 190.886719 154.472656 "/><path style=" stroke:none;fill-rule:nonzero;fill:#ab1d79;fill-opacity:1;" d="M 192.859375 156.34375 L 182.085938 156.34375 C 181.859375 156.34375 181.675781 156.160156 181.675781 155.933594 C 181.675781 155.707031 181.859375 155.523438 182.085938 155.523438 L 192.859375 155.523438 C 193.085938 155.523438 193.269531 155.707031 193.269531 155.933594 C 193.269531 156.160156 193.085938 156.34375 192.859375 156.34375 Z M 192.859375 156.34375 "/><g clip-rule="nonzero" clip-path="url(#9fc4bc1910)"><path style=" stroke:none;fill-rule:nonzero;fill:#ab1d79;fill-opacity:1;" d="M 195.722656 160.59375 L 179.238281 160.59375 C 178.898438 160.59375 178.578125 160.460938 178.335938 160.21875 C 178.09375 159.976562 177.964844 159.65625 177.964844 159.316406 L 177.976562 146.792969 C 177.976562 146.566406 178.160156 146.382812 178.386719 146.382812 C 178.613281 146.382812 178.796875 146.566406 178.796875 146.792969 L 178.785156 159.316406 C 178.785156 159.4375 178.832031 159.550781 178.917969 159.636719 C 179.003906 159.722656 179.117188 159.769531 179.238281 159.769531 L 195.722656 159.769531 C 195.976562 159.769531 196.179688 159.566406 196.179688 159.316406 L 196.191406 146.785156 C 196.191406 146.558594 196.378906 146.375 196.601562 146.375 C 196.605469 146.375 196.605469 146.375 196.605469 146.375 C 196.832031 146.378906 197.015625 146.5625 197.015625 146.789062 L 197 159.316406 C 197 160.019531 196.425781 160.59375 195.722656 160.59375 Z M 195.722656 160.59375 "/></g><g clip-rule="nonzero" clip-path="url(#a609bb98c4)"><path style=" stroke:none;fill-rule:nonzero;fill:#ab1d79;fill-opacity:1;" d="M 177.253906 147.890625 C 176.875 147.890625 176.492188 147.746094 176.203125 147.457031 C 175.625 146.878906 175.628906 145.9375 176.207031 145.359375 L 186.46875 135.113281 C 186.746094 134.835938 187.121094 134.679688 187.515625 134.679688 C 187.914062 134.679688 188.285156 134.835938 188.566406 135.117188 L 198.789062 145.359375 C 199.367188 145.9375 199.367188 146.878906 198.789062 147.457031 C 198.210938 148.035156 197.269531 148.035156 196.691406 147.457031 L 187.980469 138.734375 C 187.722656 138.472656 187.304688 138.472656 187.042969 138.730469 L 178.300781 147.457031 C 178.011719 147.746094 177.632812 147.890625 177.253906 147.890625 Z M 187.515625 135.503906 C 187.339844 135.503906 187.171875 135.570312 187.046875 135.695312 L 176.785156 145.941406 C 176.527344 146.199219 176.527344 146.617188 176.785156 146.878906 L 176.496094 147.167969 L 176.785156 146.878906 C 177.042969 147.136719 177.464844 147.136719 177.722656 146.878906 L 186.464844 138.152344 C 187.042969 137.574219 187.984375 137.574219 188.5625 138.152344 L 197.269531 146.875 C 197.394531 147 197.5625 147.070312 197.738281 147.070312 C 197.738281 147.070312 197.738281 147.070312 197.742188 147.070312 C 197.917969 147.070312 198.082031 147 198.207031 146.875 C 198.46875 146.617188 198.46875 146.199219 198.210938 145.9375 L 187.984375 135.695312 C 187.859375 135.570312 187.695312 135.503906 187.515625 135.503906 Z M 187.515625 135.503906 "/></g><path style=" stroke:none;fill-rule:nonzero;fill:#ab1d79;fill-opacity:1;" d="M 179.351562 143.207031 C 179.125 143.207031 178.941406 143.023438 178.941406 142.796875 L 178.941406 138.125 C 178.941406 137.898438 179.125 137.714844 179.351562 137.714844 L 181.074219 137.714844 C 181.300781 137.714844 181.484375 137.898438 181.484375 138.125 L 181.484375 141.078125 C 181.484375 141.304688 181.300781 141.492188 181.074219 141.492188 C 180.847656 141.492188 180.664062 141.304688 180.664062 141.078125 L 180.664062 138.539062 L 179.761719 138.539062 L 179.761719 142.796875 C 179.761719 143.023438 179.578125 143.207031 179.351562 143.207031 Z M 179.351562 143.207031 "/><path style=" stroke:none;fill-rule:nonzero;fill:#ab1d79;fill-opacity:1;" d="M 185.070312 150.578125 C 183.195312 150.578125 181.675781 149.054688 181.675781 147.179688 C 181.675781 145.308594 183.199219 143.785156 185.070312 143.785156 C 186.941406 143.785156 188.464844 145.308594 188.464844 147.179688 C 188.464844 149.054688 186.941406 150.578125 185.070312 150.578125 Z M 185.070312 144.605469 C 183.648438 144.605469 182.496094 145.761719 182.496094 147.179688 C 182.496094 148.601562 183.648438 149.753906 185.070312 149.753906 C 186.488281 149.753906 187.644531 148.601562 187.644531 147.179688 C 187.644531 145.761719 186.488281 144.605469 185.070312 144.605469 Z M 185.070312 144.605469 "/><path style=" stroke:none;fill-rule:nonzero;fill:#ab1d79;fill-opacity:1;" d="M 186.03125 147.59375 L 185.070312 147.59375 C 184.84375 147.59375 184.660156 147.40625 184.660156 147.179688 L 184.660156 145.613281 C 184.660156 145.386719 184.84375 145.203125 185.070312 145.203125 C 185.296875 145.203125 185.480469 145.386719 185.480469 145.613281 L 185.480469 146.769531 L 186.03125 146.769531 C 186.257812 146.769531 186.441406 146.953125 186.441406 147.179688 C 186.441406 147.40625 186.257812 147.59375 186.03125 147.59375 Z M 186.03125 147.59375 "/></g></svg>