<svg xmlns="http://www.w3.org/2000/svg" xmlns:xlink="http://www.w3.org/1999/xlink" width="350" zoomAndPan="magnify" viewBox="0 0 262.5 374.999991" height="500" preserveAspectRatio="xMidYMid meet" version="1.2"><defs><clipPath id="02de2dd07f"><path d="M 6 291 L 256 291 L 256 374.640625 L 6 374.640625 Z M 6 291 "/></clipPath><clipPath id="31043037c6"><path d="M 91 77.027344 L 171 77.027344 L 171 122 L 91 122 Z M 91 77.027344 "/></clipPath></defs><g id="00e2e8b9e7"><g clip-rule="nonzero" clip-path="url(#02de2dd07f)"><path style=" stroke:none;fill-rule:nonzero;fill:#a7adad;fill-opacity:1;" d="M 255.859375 332.945312 C 255.859375 333.625 255.8125 334.308594 255.710938 334.988281 C 255.609375 335.667969 255.460938 336.347656 255.257812 337.027344 C 255.058594 337.707031 254.808594 338.382812 254.507812 339.054688 C 254.210938 339.730469 253.859375 340.402344 253.460938 341.070312 C 253.0625 341.738281 252.613281 342.402344 252.117188 343.066406 C 251.621094 343.726562 251.078125 344.382812 250.484375 345.035156 C 249.890625 345.6875 249.25 346.335938 248.5625 346.976562 C 247.871094 347.617188 247.136719 348.253906 246.355469 348.882812 C 245.574219 349.515625 244.746094 350.136719 243.871094 350.753906 C 242.996094 351.371094 242.078125 351.976562 241.117188 352.578125 C 240.152344 353.179688 239.144531 353.773438 238.09375 354.359375 C 237.042969 354.941406 235.953125 355.519531 234.816406 356.085938 C 233.679688 356.652344 232.503906 357.210938 231.285156 357.757812 C 230.070312 358.304688 228.8125 358.84375 227.515625 359.367188 C 226.21875 359.894531 224.886719 360.410156 223.511719 360.917969 C 222.140625 361.421875 220.730469 361.914062 219.285156 362.398438 C 217.839844 362.878906 216.363281 363.351562 214.847656 363.808594 C 213.332031 364.265625 211.785156 364.710938 210.207031 365.144531 C 208.625 365.574219 207.015625 365.996094 205.375 366.402344 C 203.734375 366.808594 202.0625 367.199219 200.363281 367.578125 C 198.664062 367.957031 196.9375 368.320312 195.183594 368.671875 C 193.433594 369.023438 191.65625 369.359375 189.851562 369.679688 C 188.050781 370 186.226562 370.308594 184.378906 370.597656 C 182.53125 370.890625 180.664062 371.167969 178.773438 371.425781 C 176.886719 371.6875 174.980469 371.933594 173.054688 372.164062 C 171.132812 372.394531 169.191406 372.605469 167.238281 372.804688 C 165.28125 373.003906 163.3125 373.183594 161.328125 373.347656 C 159.347656 373.515625 157.355469 373.664062 155.347656 373.796875 C 153.34375 373.929688 151.332031 374.046875 149.3125 374.148438 C 147.289062 374.246094 145.261719 374.332031 143.226562 374.398438 C 141.195312 374.464844 139.15625 374.515625 137.113281 374.546875 C 135.074219 374.582031 133.03125 374.597656 130.988281 374.597656 C 128.945312 374.597656 126.902344 374.582031 124.859375 374.546875 C 122.820312 374.515625 120.78125 374.464844 118.75 374.398438 C 116.714844 374.332031 114.6875 374.246094 112.664062 374.148438 C 110.644531 374.046875 108.628906 373.929688 106.625 373.796875 C 104.621094 373.664062 102.628906 373.515625 100.644531 373.347656 C 98.664062 373.183594 96.695312 373.003906 94.738281 372.804688 C 92.785156 372.605469 90.84375 372.394531 88.917969 372.164062 C 86.996094 371.933594 85.089844 371.6875 83.199219 371.425781 C 81.3125 371.167969 79.445312 370.890625 77.597656 370.597656 C 75.75 370.308594 73.925781 370 72.125 369.679688 C 70.320312 369.359375 68.542969 369.023438 66.789062 368.671875 C 65.039062 368.320312 63.3125 367.957031 61.613281 367.578125 C 59.914062 367.199219 58.242188 366.808594 56.601562 366.402344 C 54.960938 365.996094 53.347656 365.574219 51.769531 365.144531 C 50.191406 364.710938 48.644531 364.265625 47.128906 363.808594 C 45.613281 363.351562 44.132812 362.878906 42.691406 362.398438 C 41.246094 361.914062 39.835938 361.421875 38.464844 360.917969 C 37.089844 360.410156 35.757812 359.894531 34.460938 359.367188 C 33.164062 358.84375 31.90625 358.304688 30.6875 357.757812 C 29.472656 357.210938 28.296875 356.652344 27.160156 356.085938 C 26.023438 355.519531 24.929688 354.941406 23.882812 354.359375 C 22.832031 353.773438 21.824219 353.179688 20.859375 352.578125 C 19.898438 351.976562 18.976562 351.371094 18.105469 350.753906 C 17.230469 350.136719 16.402344 349.515625 15.621094 348.882812 C 14.839844 348.253906 14.101562 347.617188 13.414062 346.976562 C 12.726562 346.335938 12.085938 345.6875 11.492188 345.035156 C 10.898438 344.382812 10.355469 343.726562 9.855469 343.066406 C 9.359375 342.402344 8.914062 341.738281 8.515625 341.070312 C 8.117188 340.402344 7.765625 339.730469 7.464844 339.054688 C 7.167969 338.382812 6.917969 337.707031 6.714844 337.027344 C 6.515625 336.347656 6.367188 335.667969 6.265625 334.988281 C 6.164062 334.308594 6.113281 333.625 6.113281 332.945312 C 6.113281 332.261719 6.164062 331.582031 6.265625 330.898438 C 6.367188 330.21875 6.515625 329.539062 6.714844 328.863281 C 6.917969 328.183594 7.167969 327.507812 7.464844 326.832031 C 7.765625 326.15625 8.117188 325.488281 8.515625 324.816406 C 8.914062 324.148438 9.359375 323.484375 9.855469 322.824219 C 10.355469 322.160156 10.898438 321.503906 11.492188 320.851562 C 12.085938 320.199219 12.726562 319.554688 13.414062 318.910156 C 14.101562 318.269531 14.839844 317.632812 15.621094 317.003906 C 16.402344 316.375 17.230469 315.75 18.105469 315.136719 C 18.976562 314.519531 19.898438 313.910156 20.859375 313.308594 C 21.824219 312.707031 22.832031 312.113281 23.878906 311.53125 C 24.929688 310.945312 26.023438 310.371094 27.160156 309.800781 C 28.296875 309.234375 29.472656 308.679688 30.6875 308.132812 C 31.90625 307.582031 33.164062 307.046875 34.460938 306.519531 C 35.757812 305.992188 37.089844 305.476562 38.464844 304.972656 C 39.835938 304.464844 41.246094 303.972656 42.691406 303.492188 C 44.132812 303.007812 45.613281 302.539062 47.128906 302.082031 C 48.644531 301.625 50.191406 301.179688 51.769531 300.746094 C 53.347656 300.3125 54.960938 299.894531 56.601562 299.488281 C 58.242188 299.082031 59.914062 298.6875 61.613281 298.308594 C 63.3125 297.933594 65.039062 297.566406 66.789062 297.214844 C 68.542969 296.867188 70.320312 296.53125 72.125 296.210938 C 73.925781 295.886719 75.75 295.582031 77.597656 295.289062 C 79.445312 295 81.3125 294.722656 83.199219 294.460938 C 85.089844 294.199219 86.996094 293.957031 88.917969 293.726562 C 90.84375 293.496094 92.785156 293.28125 94.738281 293.085938 C 96.695312 292.886719 98.664062 292.703125 100.644531 292.539062 C 102.628906 292.375 104.621094 292.222656 106.625 292.089844 C 108.628906 291.957031 110.644531 291.839844 112.664062 291.742188 C 114.6875 291.640625 116.714844 291.558594 118.75 291.492188 C 120.78125 291.425781 122.820312 291.375 124.859375 291.339844 C 126.902344 291.308594 128.945312 291.289062 130.988281 291.289062 C 133.03125 291.289062 135.074219 291.308594 137.113281 291.339844 C 139.15625 291.375 141.195312 291.425781 143.226562 291.492188 C 145.261719 291.558594 147.289062 291.640625 149.3125 291.742188 C 151.332031 291.839844 153.34375 291.957031 155.347656 292.089844 C 157.355469 292.222656 159.347656 292.375 161.328125 292.539062 C 163.3125 292.703125 165.28125 292.886719 167.238281 293.085938 C 169.191406 293.28125 171.132812 293.496094 173.054688 293.726562 C 174.980469 293.957031 176.886719 294.199219 178.773438 294.460938 C 180.664062 294.722656 182.53125 295 184.378906 295.289062 C 186.226562 295.582031 188.050781 295.886719 189.851562 296.210938 C 191.65625 296.53125 193.433594 296.867188 195.183594 297.214844 C 196.9375 297.566406 198.664062 297.933594 200.363281 298.308594 C 202.0625 298.6875 203.734375 299.082031 205.375 299.488281 C 207.015625 299.894531 208.625 300.3125 210.207031 300.746094 C 211.785156 301.179688 213.332031 301.625 214.847656 302.082031 C 216.363281 302.539062 217.839844 303.007812 219.285156 303.492188 C 220.730469 303.972656 222.140625 304.464844 223.511719 304.972656 C 224.886719 305.476562 226.21875 305.992188 227.515625 306.519531 C 228.8125 307.046875 230.070312 307.582031 231.285156 308.132812 C 232.503906 308.679688 233.679688 309.234375 234.816406 309.800781 C 235.953125 310.371094 237.042969 310.945312 238.09375 311.53125 C 239.144531 312.113281 240.152344 312.707031 241.117188 313.308594 C 242.078125 313.910156 242.996094 314.519531 243.871094 315.136719 C 244.746094 315.75 245.574219 316.375 246.355469 317.003906 C 247.136719 317.632812 247.871094 318.269531 248.5625 318.910156 C 249.25 319.554688 249.890625 320.199219 250.484375 320.851562 C 251.078125 321.503906 251.621094 322.160156 252.117188 322.824219 C 252.613281 323.484375 253.0625 324.148438 253.460938 324.816406 C 253.859375 325.488281 254.210938 326.15625 254.507812 326.832031 C 254.808594 327.507812 255.058594 328.183594 255.257812 328.863281 C 255.460938 329.539062 255.609375 330.21875 255.710938 330.898438 C 255.8125 331.582031 255.859375 332.261719 255.859375 332.945312 Z M 255.859375 332.945312 "/></g><path style=" stroke:none;fill-rule:evenodd;fill:#000000;fill-opacity:1;" d="M 212.09375 45.15625 C 167.300781 0.355469 94.675781 0.355469 49.882812 45.15625 C 11.21875 83.828125 5.222656 144.421875 35.5625 189.921875 L 130.988281 333.03125 L 226.414062 189.921875 C 256.753906 144.421875 250.757812 83.828125 212.09375 45.15625 Z M 130.988281 183.742188 C 163.726562 183.742188 190.269531 157.195312 190.269531 124.453125 C 190.269531 91.707031 163.726562 65.164062 130.988281 65.164062 C 98.25 65.164062 71.707031 91.707031 71.707031 124.453125 C 71.707031 157.195312 98.25 183.742188 130.988281 183.742188 Z M 130.988281 183.742188 "/><path style=" stroke:none;fill-rule:nonzero;fill:#1c2120;fill-opacity:1;" d="M 149.203125 155.578125 C 148.433594 155.578125 147.808594 154.953125 147.808594 154.183594 L 147.808594 133.394531 C 147.808594 132.625 148.433594 132 149.203125 132 C 149.972656 132 150.597656 132.625 150.597656 133.394531 L 150.597656 154.183594 C 150.597656 154.953125 149.972656 155.578125 149.203125 155.578125 Z M 149.203125 155.578125 "/><path style=" stroke:none;fill-rule:nonzero;fill:#1c2120;fill-opacity:1;" d="M 112.609375 155.578125 C 111.839844 155.578125 111.214844 154.953125 111.214844 154.183594 L 111.214844 142.84375 C 111.214844 142.074219 111.839844 141.449219 112.609375 141.449219 L 149.203125 141.449219 C 149.972656 141.449219 150.597656 142.074219 150.597656 142.84375 C 150.597656 143.613281 149.972656 144.238281 149.203125 144.238281 L 114.003906 144.238281 L 114.003906 154.183594 C 114.003906 154.953125 113.378906 155.578125 112.609375 155.578125 Z M 112.609375 155.578125 "/><path style=" stroke:none;fill-rule:nonzero;fill:#1c2120;fill-opacity:1;" d="M 142.503906 144.238281 C 141.730469 144.238281 141.109375 143.613281 141.109375 142.84375 C 141.109375 138.570312 144.585938 135.09375 148.859375 135.09375 L 149.203125 135.09375 C 149.972656 135.09375 150.597656 135.71875 150.597656 136.488281 C 150.597656 137.257812 149.972656 137.882812 149.203125 137.882812 L 148.859375 137.882812 C 146.121094 137.882812 143.894531 140.109375 143.894531 142.84375 C 143.894531 143.613281 143.273438 144.238281 142.503906 144.238281 Z M 142.503906 144.238281 "/><path style=" stroke:none;fill-rule:nonzero;fill:#1c2120;fill-opacity:1;" d="M 149.203125 150.59375 L 112.609375 150.59375 C 111.839844 150.59375 111.214844 149.972656 111.214844 149.203125 C 111.214844 148.433594 111.839844 147.808594 112.609375 147.808594 L 149.203125 147.808594 C 149.972656 147.808594 150.597656 148.433594 150.597656 149.203125 C 150.597656 149.972656 149.972656 150.59375 149.203125 150.59375 Z M 149.203125 150.59375 "/><path style=" stroke:none;fill-rule:nonzero;fill:#1c2120;fill-opacity:1;" d="M 158.933594 165.027344 L 102.945312 165.027344 C 101.785156 165.027344 100.695312 164.574219 99.878906 163.757812 C 99.058594 162.9375 98.609375 161.847656 98.609375 160.691406 L 98.65625 118.164062 C 98.65625 117.394531 99.28125 116.769531 100.050781 116.769531 C 100.820312 116.769531 101.445312 117.394531 101.445312 118.164062 L 101.398438 160.691406 C 101.398438 161.105469 101.558594 161.492188 101.851562 161.785156 C 102.144531 162.078125 102.53125 162.238281 102.945312 162.238281 L 158.933594 162.238281 C 159.785156 162.238281 160.476562 161.546875 160.476562 160.695312 L 160.523438 118.140625 C 160.527344 117.371094 161.148438 116.746094 161.917969 116.746094 C 161.917969 116.746094 161.921875 116.746094 161.921875 116.746094 C 162.691406 116.75 163.3125 117.371094 163.3125 118.144531 L 163.265625 160.699219 C 163.261719 163.085938 161.320312 165.027344 158.933594 165.027344 Z M 158.933594 165.027344 "/><g clip-rule="nonzero" clip-path="url(#31043037c6)"><path style=" stroke:none;fill-rule:nonzero;fill:#1c2120;fill-opacity:1;" d="M 96.203125 121.894531 C 94.910156 121.894531 93.617188 121.402344 92.636719 120.414062 C 90.671875 118.449219 90.675781 115.253906 92.640625 113.289062 L 127.492188 78.496094 C 128.445312 77.546875 129.710938 77.023438 131.054688 77.023438 C 131.054688 77.023438 131.058594 77.023438 131.058594 77.023438 C 132.40625 77.027344 133.667969 77.550781 134.621094 78.503906 L 169.347656 113.289062 C 171.308594 115.257812 171.308594 118.453125 169.339844 120.417969 C 167.375 122.378906 164.175781 122.378906 162.214844 120.410156 L 132.636719 90.785156 C 131.761719 89.90625 130.332031 89.90625 129.453125 90.78125 L 99.761719 120.421875 C 98.78125 121.402344 97.492188 121.894531 96.203125 121.894531 Z M 131.054688 79.8125 C 130.453125 79.8125 129.886719 80.046875 129.464844 80.472656 L 94.613281 115.261719 C 93.734375 116.140625 93.730469 117.566406 94.609375 118.445312 L 93.621094 119.429688 L 94.609375 118.445312 C 95.484375 119.324219 96.914062 119.324219 97.792969 118.449219 L 127.484375 88.808594 C 129.453125 86.84375 132.648438 86.847656 134.613281 88.816406 L 164.1875 118.441406 C 164.613281 118.867188 165.175781 119.101562 165.777344 119.101562 C 165.777344 119.101562 165.78125 119.101562 165.78125 119.101562 C 166.382812 119.101562 166.945312 118.867188 167.371094 118.445312 C 168.25 117.566406 168.25 116.140625 167.375 115.261719 L 132.648438 80.472656 C 132.222656 80.046875 131.65625 79.8125 131.054688 79.8125 Z M 131.054688 79.8125 "/></g><path style=" stroke:none;fill-rule:nonzero;fill:#1c2120;fill-opacity:1;" d="M 103.332031 105.980469 C 102.5625 105.980469 101.9375 105.359375 101.9375 104.585938 L 101.9375 88.726562 C 101.9375 87.957031 102.5625 87.332031 103.332031 87.332031 L 109.171875 87.332031 C 109.941406 87.332031 110.566406 87.957031 110.566406 88.726562 L 110.566406 98.757812 C 110.566406 99.527344 109.941406 100.152344 109.171875 100.152344 C 108.402344 100.152344 107.777344 99.527344 107.777344 98.757812 L 107.777344 90.121094 L 104.726562 90.121094 L 104.726562 104.585938 C 104.726562 105.359375 104.101562 105.980469 103.332031 105.980469 Z M 103.332031 105.980469 "/><path style=" stroke:none;fill-rule:nonzero;fill:#1c2120;fill-opacity:1;" d="M 122.746094 131.011719 C 116.386719 131.011719 111.214844 125.835938 111.214844 119.480469 C 111.214844 113.121094 116.386719 107.949219 122.746094 107.949219 C 129.101562 107.949219 134.273438 113.121094 134.273438 119.480469 C 134.273438 125.835938 129.101562 131.011719 122.746094 131.011719 Z M 122.746094 110.738281 C 117.925781 110.738281 114.003906 114.660156 114.003906 119.480469 C 114.003906 124.300781 117.925781 128.222656 122.746094 128.222656 C 127.566406 128.222656 131.488281 124.300781 131.488281 119.480469 C 131.488281 114.660156 127.566406 110.738281 122.746094 110.738281 Z M 122.746094 110.738281 "/><path style=" stroke:none;fill-rule:nonzero;fill:#1c2120;fill-opacity:1;" d="M 126.007812 120.875 L 122.746094 120.875 C 121.976562 120.875 121.351562 120.25 121.351562 119.480469 L 121.351562 114.152344 C 121.351562 113.382812 121.976562 112.761719 122.746094 112.761719 C 123.515625 112.761719 124.140625 113.382812 124.140625 114.152344 L 124.140625 118.085938 L 126.007812 118.085938 C 126.777344 118.085938 127.402344 118.710938 127.402344 119.480469 C 127.402344 120.25 126.777344 120.875 126.007812 120.875 Z M 126.007812 120.875 "/></g></svg>