<svg xmlns="http://www.w3.org/2000/svg" xmlns:xlink="http://www.w3.org/1999/xlink" width="350" zoomAndPan="magnify" viewBox="0 0 262.5 374.999991" height="500" preserveAspectRatio="xMidYMid meet" version="1.2"><defs><clipPath id="675095091c"><path d="M 6 291 L 256 291 L 256 374.640625 L 6 374.640625 Z M 6 291 "/></clipPath><clipPath id="86f476d30e"><path d="M 98 116 L 164 116 L 164 165.359375 L 98 165.359375 Z M 98 116 "/></clipPath><clipPath id="fcad5d2bca"><path d="M 91 77.027344 L 171 77.027344 L 171 122 L 91 122 Z M 91 77.027344 "/></clipPath></defs><g id="9a281bc81f"><g clip-rule="nonzero" clip-path="url(#675095091c)"><path style=" stroke:none;fill-rule:nonzero;fill:#ef94ca;fill-opacity:1;" d="M 255.757812 332.808594 C 255.757812 333.488281 255.710938 334.171875 255.609375 334.851562 C 255.507812 335.53125 255.359375 336.210938 255.160156 336.890625 C 254.957031 337.566406 254.707031 338.242188 254.410156 338.917969 C 254.109375 339.589844 253.757812 340.261719 253.359375 340.929688 C 252.960938 341.597656 252.515625 342.265625 252.019531 342.925781 C 251.523438 343.585938 250.976562 344.242188 250.382812 344.894531 C 249.792969 345.546875 249.152344 346.195312 248.460938 346.835938 C 247.773438 347.476562 247.039062 348.113281 246.257812 348.742188 C 245.476562 349.371094 244.648438 349.996094 243.773438 350.609375 C 242.902344 351.226562 241.984375 351.835938 241.019531 352.4375 C 240.058594 353.035156 239.050781 353.628906 238 354.214844 C 236.949219 354.796875 235.859375 355.375 234.722656 355.941406 C 233.589844 356.507812 232.414062 357.0625 231.195312 357.609375 C 229.976562 358.160156 228.722656 358.695312 227.425781 359.222656 C 226.128906 359.75 224.796875 360.265625 223.425781 360.769531 C 222.050781 361.273438 220.644531 361.769531 219.199219 362.25 C 217.753906 362.730469 216.277344 363.203125 214.761719 363.660156 C 213.25 364.117188 211.703125 364.5625 210.125 364.992188 C 208.542969 365.425781 206.933594 365.84375 205.292969 366.25 C 203.652344 366.65625 201.984375 367.050781 200.285156 367.429688 C 198.585938 367.804688 196.859375 368.171875 195.109375 368.519531 C 193.355469 368.871094 191.578125 369.207031 189.777344 369.527344 C 187.976562 369.851562 186.152344 370.15625 184.304688 370.449219 C 182.460938 370.738281 180.59375 371.015625 178.703125 371.277344 C 176.816406 371.535156 174.914062 371.78125 172.988281 372.011719 C 171.066406 372.242188 169.125 372.453125 167.171875 372.652344 C 165.214844 372.851562 163.25 373.03125 161.265625 373.195312 C 159.285156 373.363281 157.292969 373.511719 155.289062 373.644531 C 153.285156 373.777344 151.273438 373.894531 149.253906 373.996094 C 147.230469 374.09375 145.207031 374.175781 143.171875 374.246094 C 141.140625 374.3125 139.101562 374.359375 137.0625 374.394531 C 135.023438 374.429688 132.980469 374.445312 130.9375 374.445312 C 128.894531 374.445312 126.851562 374.429688 124.8125 374.394531 C 122.773438 374.359375 120.734375 374.3125 118.703125 374.246094 C 116.667969 374.175781 114.644531 374.09375 112.621094 373.996094 C 110.601562 373.894531 108.589844 373.777344 106.585938 373.644531 C 104.582031 373.511719 102.589844 373.363281 100.609375 373.195312 C 98.625 373.03125 96.660156 372.851562 94.703125 372.652344 C 92.75 372.453125 90.808594 372.242188 88.886719 372.011719 C 86.960938 371.78125 85.058594 371.535156 83.171875 371.277344 C 81.28125 371.015625 79.414062 370.738281 77.570312 370.449219 C 75.722656 370.15625 73.898438 369.851562 72.097656 369.527344 C 70.296875 369.207031 68.519531 368.871094 66.765625 368.519531 C 65.015625 368.171875 63.289062 367.804688 61.589844 367.429688 C 59.890625 367.050781 58.222656 366.65625 56.582031 366.25 C 54.941406 365.84375 53.332031 365.425781 51.75 364.992188 C 50.171875 364.5625 48.625 364.117188 47.113281 363.660156 C 45.597656 363.203125 44.121094 362.730469 42.675781 362.25 C 41.230469 361.769531 39.824219 361.273438 38.449219 360.769531 C 37.078125 360.265625 35.746094 359.75 34.449219 359.222656 C 33.152344 358.695312 31.898438 358.160156 30.679688 357.609375 C 29.460938 357.0625 28.285156 356.507812 27.152344 355.941406 C 26.015625 355.375 24.925781 354.796875 23.875 354.214844 C 22.824219 353.628906 21.816406 353.035156 20.855469 352.4375 C 19.890625 351.835938 18.972656 351.226562 18.101562 350.609375 C 17.226562 349.996094 16.398438 349.371094 15.617188 348.742188 C 14.835938 348.113281 14.101562 347.476562 13.414062 346.835938 C 12.722656 346.195312 12.082031 345.546875 11.492188 344.894531 C 10.898438 344.242188 10.351562 343.585938 9.855469 342.925781 C 9.359375 342.265625 8.914062 341.597656 8.515625 340.929688 C 8.117188 340.261719 7.765625 339.589844 7.464844 338.917969 C 7.167969 338.242188 6.917969 337.566406 6.714844 336.890625 C 6.515625 336.210938 6.367188 335.53125 6.265625 334.851562 C 6.164062 334.171875 6.117188 333.488281 6.117188 332.808594 C 6.117188 332.125 6.164062 331.445312 6.265625 330.765625 C 6.367188 330.085938 6.515625 329.40625 6.714844 328.726562 C 6.917969 328.050781 7.167969 327.371094 7.464844 326.699219 C 7.765625 326.023438 8.117188 325.355469 8.515625 324.683594 C 8.914062 324.015625 9.359375 323.351562 9.855469 322.691406 C 10.351562 322.03125 10.898438 321.375 11.492188 320.722656 C 12.082031 320.070312 12.722656 319.421875 13.414062 318.78125 C 14.101562 318.140625 14.835938 317.503906 15.617188 316.875 C 16.398438 316.246094 17.226562 315.621094 18.101562 315.007812 C 18.972656 314.390625 19.890625 313.78125 20.855469 313.179688 C 21.816406 312.578125 22.824219 311.988281 23.875 311.402344 C 24.925781 310.816406 26.015625 310.242188 27.152344 309.675781 C 28.285156 309.109375 29.460938 308.550781 30.679688 308.003906 C 31.898438 307.457031 33.152344 306.921875 34.449219 306.394531 C 35.746094 305.867188 37.078125 305.351562 38.449219 304.847656 C 39.824219 304.34375 41.230469 303.847656 42.675781 303.367188 C 44.121094 302.886719 45.597656 302.414062 47.113281 301.957031 C 48.625 301.5 50.171875 301.054688 51.75 300.621094 C 53.332031 300.191406 54.941406 299.769531 56.582031 299.367188 C 58.222656 298.960938 59.890625 298.566406 61.589844 298.1875 C 63.289062 297.808594 65.015625 297.445312 66.765625 297.09375 C 68.519531 296.746094 70.296875 296.410156 72.097656 296.089844 C 73.898438 295.765625 75.722656 295.460938 77.570312 295.167969 C 79.414062 294.878906 81.28125 294.601562 83.171875 294.339844 C 85.058594 294.082031 86.960938 293.835938 88.886719 293.605469 C 90.808594 293.375 92.75 293.164062 94.703125 292.964844 C 96.660156 292.765625 98.625 292.585938 100.609375 292.417969 C 102.589844 292.253906 104.582031 292.105469 106.585938 291.972656 C 108.589844 291.839844 110.601562 291.722656 112.621094 291.621094 C 114.644531 291.523438 116.667969 291.4375 118.703125 291.371094 C 120.734375 291.304688 122.773438 291.253906 124.8125 291.222656 C 126.851562 291.1875 128.894531 291.171875 130.9375 291.171875 C 132.980469 291.171875 135.023438 291.1875 137.0625 291.222656 C 139.101562 291.253906 141.140625 291.304688 143.171875 291.371094 C 145.207031 291.4375 147.230469 291.523438 149.253906 291.621094 C 151.273438 291.722656 153.285156 291.839844 155.289062 291.972656 C 157.292969 292.105469 159.285156 292.253906 161.265625 292.417969 C 163.25 292.585938 165.214844 292.765625 167.171875 292.964844 C 169.125 293.164062 171.066406 293.375 172.988281 293.605469 C 174.914062 293.835938 176.816406 294.082031 178.703125 294.339844 C 180.59375 294.601562 182.460938 294.878906 184.304688 295.167969 C 186.152344 295.460938 187.976562 295.765625 189.777344 296.089844 C 191.578125 296.410156 193.355469 296.746094 195.109375 297.09375 C 196.859375 297.445312 198.585938 297.808594 200.285156 298.1875 C 201.984375 298.566406 203.652344 298.960938 205.292969 299.367188 C 206.933594 299.769531 208.542969 300.191406 210.125 300.621094 C 211.703125 301.054688 213.25 301.5 214.761719 301.957031 C 216.277344 302.414062 217.753906 302.886719 219.199219 303.367188 C 220.644531 303.847656 222.050781 304.34375 223.425781 304.847656 C 224.796875 305.351562 226.128906 305.867188 227.425781 306.394531 C 228.722656 306.921875 229.976562 307.457031 231.195312 308.003906 C 232.414062 308.550781 233.589844 309.109375 234.722656 309.675781 C 235.859375 310.242188 236.949219 310.816406 238 311.402344 C 239.050781 311.988281 240.058594 312.578125 241.019531 313.179688 C 241.984375 313.78125 242.902344 314.390625 243.773438 315.007812 C 244.648438 315.621094 245.476562 316.246094 246.257812 316.875 C 247.039062 317.503906 247.773438 318.140625 248.460938 318.78125 C 249.152344 319.421875 249.792969 320.070312 250.382812 320.722656 C 250.976562 321.375 251.523438 322.03125 252.019531 322.691406 C 252.515625 323.351562 252.960938 324.015625 253.359375 324.683594 C 253.757812 325.355469 254.109375 326.023438 254.410156 326.699219 C 254.707031 327.371094 254.957031 328.050781 255.160156 328.726562 C 255.359375 329.40625 255.507812 330.085938 255.609375 330.765625 C 255.710938 331.445312 255.757812 332.125 255.757812 332.808594 Z M 255.757812 332.808594 "/></g><path style=" stroke:none;fill-rule:evenodd;fill:#e61f93;fill-opacity:1;" d="M 212.007812 45.136719 C 167.234375 0.355469 94.640625 0.355469 49.867188 45.136719 C 11.214844 83.792969 5.226562 144.363281 35.550781 189.84375 L 130.9375 332.898438 L 226.324219 189.84375 C 256.652344 144.363281 250.660156 83.792969 212.007812 45.136719 Z M 130.9375 183.667969 C 163.664062 183.667969 190.191406 157.132812 190.191406 124.402344 C 190.191406 91.671875 163.664062 65.136719 130.9375 65.136719 C 98.210938 65.136719 71.683594 91.671875 71.683594 124.402344 C 71.683594 157.132812 98.210938 183.667969 130.9375 183.667969 Z M 130.9375 183.667969 "/><path style=" stroke:none;fill-rule:nonzero;fill:#ab1d79;fill-opacity:1;" d="M 149.226562 155.601562 C 148.453125 155.601562 147.832031 154.976562 147.832031 154.207031 L 147.832031 133.414062 C 147.832031 132.644531 148.453125 132.019531 149.226562 132.019531 C 149.996094 132.019531 150.621094 132.644531 150.621094 133.414062 L 150.621094 154.207031 C 150.621094 154.976562 149.996094 155.601562 149.226562 155.601562 Z M 149.226562 155.601562 "/><path style=" stroke:none;fill-rule:nonzero;fill:#ab1d79;fill-opacity:1;" d="M 112.621094 155.601562 C 111.847656 155.601562 111.226562 154.976562 111.226562 154.207031 L 111.226562 142.867188 C 111.226562 142.09375 111.847656 141.472656 112.621094 141.472656 L 149.226562 141.472656 C 149.996094 141.472656 150.621094 142.09375 150.621094 142.867188 C 150.621094 143.636719 149.996094 144.261719 149.226562 144.261719 L 114.015625 144.261719 L 114.015625 154.207031 C 114.015625 154.976562 113.390625 155.601562 112.621094 155.601562 Z M 112.621094 155.601562 "/><path style=" stroke:none;fill-rule:nonzero;fill:#ab1d79;fill-opacity:1;" d="M 142.523438 144.261719 C 141.753906 144.261719 141.128906 143.636719 141.128906 142.867188 C 141.128906 138.589844 144.605469 135.113281 148.882812 135.113281 L 149.226562 135.113281 C 149.996094 135.113281 150.621094 135.738281 150.621094 136.507812 C 150.621094 137.277344 149.996094 137.902344 149.226562 137.902344 L 148.882812 137.902344 C 146.144531 137.902344 143.917969 140.128906 143.917969 142.867188 C 143.917969 143.636719 143.292969 144.261719 142.523438 144.261719 Z M 142.523438 144.261719 "/><path style=" stroke:none;fill-rule:nonzero;fill:#ab1d79;fill-opacity:1;" d="M 149.226562 150.617188 L 112.621094 150.617188 C 111.847656 150.617188 111.226562 149.996094 111.226562 149.222656 C 111.226562 148.453125 111.847656 147.828125 112.621094 147.828125 L 149.226562 147.828125 C 149.996094 147.828125 150.621094 148.453125 150.621094 149.222656 C 150.621094 149.996094 149.996094 150.617188 149.226562 150.617188 Z M 149.226562 150.617188 "/><g clip-rule="nonzero" clip-path="url(#86f476d30e)"><path style=" stroke:none;fill-rule:nonzero;fill:#ab1d79;fill-opacity:1;" d="M 158.957031 165.054688 L 102.953125 165.054688 C 101.792969 165.054688 100.703125 164.601562 99.886719 163.785156 C 99.066406 162.964844 98.617188 161.875 98.617188 160.714844 L 98.664062 118.175781 C 98.664062 117.40625 99.289062 116.78125 100.058594 116.78125 C 100.828125 116.785156 101.453125 117.410156 101.453125 118.179688 L 101.40625 160.71875 C 101.40625 161.132812 101.566406 161.519531 101.859375 161.8125 C 102.152344 162.105469 102.539062 162.265625 102.953125 162.265625 L 158.957031 162.265625 C 159.808594 162.265625 160.503906 161.574219 160.503906 160.722656 L 160.550781 118.152344 C 160.550781 117.382812 161.175781 116.761719 161.945312 116.761719 C 162.71875 116.761719 163.339844 117.386719 163.339844 118.15625 L 163.292969 160.726562 C 163.289062 163.113281 161.347656 165.054688 158.957031 165.054688 Z M 158.957031 165.054688 "/></g><g clip-rule="nonzero" clip-path="url(#fcad5d2bca)"><path style=" stroke:none;fill-rule:nonzero;fill:#ab1d79;fill-opacity:1;" d="M 96.207031 121.90625 C 94.914062 121.90625 93.625 121.414062 92.640625 120.429688 C 90.675781 118.460938 90.679688 115.265625 92.648438 113.300781 L 127.507812 78.5 C 128.460938 77.546875 129.726562 77.023438 131.070312 77.023438 C 131.074219 77.023438 131.074219 77.023438 131.074219 77.023438 C 132.421875 77.027344 133.6875 77.550781 134.640625 78.503906 L 169.375 113.300781 C 171.339844 115.269531 171.335938 118.46875 169.371094 120.429688 C 167.402344 122.394531 164.203125 122.390625 162.242188 120.425781 L 132.65625 90.789062 C 131.777344 89.910156 130.351562 89.910156 129.472656 90.785156 L 99.769531 120.4375 C 98.789062 121.417969 97.496094 121.90625 96.207031 121.90625 Z M 131.070312 79.8125 C 130.46875 79.8125 129.90625 80.046875 129.480469 80.472656 L 94.617188 115.273438 C 93.738281 116.152344 93.738281 117.578125 94.613281 118.457031 L 93.628906 119.445312 L 94.613281 118.460938 C 95.492188 119.339844 96.921875 119.339844 97.800781 118.460938 L 127.5 88.8125 C 129.46875 86.847656 132.664062 86.851562 134.628906 88.820312 L 164.214844 118.453125 C 164.640625 118.878906 165.203125 119.113281 165.804688 119.117188 C 165.808594 119.117188 165.808594 119.117188 165.808594 119.117188 C 166.410156 119.117188 166.972656 118.882812 167.398438 118.457031 C 168.277344 117.582031 168.28125 116.152344 167.402344 115.273438 L 132.664062 80.476562 C 132.238281 80.050781 131.675781 79.8125 131.074219 79.8125 C 131.074219 79.8125 131.070312 79.8125 131.070312 79.8125 Z M 131.070312 79.8125 "/></g><path style=" stroke:none;fill-rule:nonzero;fill:#ab1d79;fill-opacity:1;" d="M 103.339844 105.992188 C 102.570312 105.992188 101.945312 105.367188 101.945312 104.597656 L 101.945312 88.730469 C 101.945312 87.960938 102.570312 87.335938 103.339844 87.335938 L 109.183594 87.335938 C 109.953125 87.335938 110.578125 87.960938 110.578125 88.730469 L 110.578125 98.761719 C 110.578125 99.535156 109.953125 100.15625 109.183594 100.15625 C 108.414062 100.15625 107.789062 99.535156 107.789062 98.761719 L 107.789062 90.125 L 104.734375 90.125 L 104.734375 104.597656 C 104.734375 105.367188 104.109375 105.992188 103.339844 105.992188 Z M 103.339844 105.992188 "/><path style=" stroke:none;fill-rule:nonzero;fill:#ab1d79;fill-opacity:1;" d="M 122.757812 131.027344 C 116.398438 131.027344 111.226562 125.851562 111.226562 119.492188 C 111.226562 113.132812 116.398438 107.957031 122.757812 107.957031 C 129.117188 107.957031 134.292969 113.132812 134.292969 119.492188 C 134.292969 125.851562 129.117188 131.027344 122.757812 131.027344 Z M 122.757812 110.746094 C 117.9375 110.746094 114.015625 114.671875 114.015625 119.492188 C 114.015625 124.316406 117.9375 128.238281 122.757812 128.238281 C 127.582031 128.238281 131.503906 124.316406 131.503906 119.492188 C 131.503906 114.671875 127.582031 110.746094 122.757812 110.746094 Z M 122.757812 110.746094 "/><path style=" stroke:none;fill-rule:nonzero;fill:#ab1d79;fill-opacity:1;" d="M 126.023438 120.886719 L 122.757812 120.886719 C 121.988281 120.886719 121.363281 120.261719 121.363281 119.492188 L 121.363281 114.164062 C 121.363281 113.394531 121.988281 112.769531 122.757812 112.769531 C 123.53125 112.769531 124.152344 113.394531 124.152344 114.164062 L 124.152344 118.097656 L 126.023438 118.097656 C 126.792969 118.097656 127.417969 118.722656 127.417969 119.492188 C 127.417969 120.261719 126.792969 120.886719 126.023438 120.886719 Z M 126.023438 120.886719 "/></g></svg>