<svg xmlns="http://www.w3.org/2000/svg" xmlns:xlink="http://www.w3.org/1999/xlink" width="500" zoomAndPan="magnify" viewBox="0 0 375 374.999991" height="500" preserveAspectRatio="xMidYMid meet" version="1.2"><defs><clipPath id="03ef1a886f"><path d="M 150.453125 198 L 224.703125 198 L 224.703125 223.554688 L 150.453125 223.554688 Z M 150.453125 198 "/></clipPath><clipPath id="ac31093bc4"><path d="M 175.625 135.878906 L 199.625 135.878906 L 199.625 150 L 175.625 150 Z M 175.625 135.878906 "/></clipPath></defs><g id="0a40cd1a77"><g clip-rule="nonzero" clip-path="url(#03ef1a886f)"><path style=" stroke:none;fill-rule:nonzero;fill:#b4dbdc;fill-opacity:1;" d="M 224.261719 211.230469 C 224.261719 211.632812 224.203125 212.03125 224.085938 212.433594 C 223.96875 212.832031 223.792969 213.230469 223.554688 213.625 C 223.320312 214.015625 223.03125 214.40625 222.679688 214.789062 C 222.332031 215.175781 221.925781 215.554688 221.464844 215.925781 C 221.003906 216.296875 220.488281 216.65625 219.921875 217.011719 C 219.355469 217.367188 218.734375 217.710938 218.066406 218.042969 C 217.398438 218.378906 216.679688 218.699219 215.917969 219.011719 C 215.152344 219.320312 214.347656 219.617188 213.496094 219.902344 C 212.644531 220.1875 211.75 220.457031 210.820312 220.710938 C 209.890625 220.964844 208.925781 221.203125 207.921875 221.429688 C 206.921875 221.652344 205.890625 221.855469 204.828125 222.046875 C 203.765625 222.234375 202.679688 222.40625 201.566406 222.5625 C 200.453125 222.714844 199.320312 222.851562 198.167969 222.964844 C 197.015625 223.082031 195.851562 223.179688 194.667969 223.257812 C 193.488281 223.335938 192.296875 223.394531 191.101562 223.4375 C 189.902344 223.476562 188.699219 223.496094 187.496094 223.496094 C 186.292969 223.496094 185.089844 223.476562 183.890625 223.4375 C 182.695312 223.394531 181.503906 223.335938 180.324219 223.257812 C 179.140625 223.179688 177.976562 223.082031 176.824219 222.964844 C 175.671875 222.851562 174.539062 222.714844 173.425781 222.5625 C 172.3125 222.40625 171.226562 222.234375 170.164062 222.046875 C 169.101562 221.855469 168.070312 221.652344 167.070312 221.429688 C 166.070312 221.203125 165.101562 220.964844 164.171875 220.710938 C 163.242188 220.457031 162.351562 220.1875 161.5 219.902344 C 160.648438 219.617188 159.839844 219.320312 159.074219 219.011719 C 158.3125 218.699219 157.59375 218.378906 156.925781 218.042969 C 156.257812 217.710938 155.636719 217.367188 155.070312 217.011719 C 154.503906 216.65625 153.988281 216.296875 153.527344 215.925781 C 153.066406 215.554688 152.664062 215.175781 152.3125 214.789062 C 151.964844 214.40625 151.671875 214.015625 151.4375 213.625 C 151.199219 213.230469 151.023438 212.832031 150.90625 212.433594 C 150.789062 212.03125 150.730469 211.632812 150.730469 211.230469 C 150.730469 210.828125 150.789062 210.429688 150.90625 210.027344 C 151.023438 209.628906 151.199219 209.230469 151.4375 208.839844 C 151.671875 208.445312 151.964844 208.054688 152.3125 207.671875 C 152.664062 207.285156 153.066406 206.910156 153.527344 206.539062 C 153.988281 206.167969 154.503906 205.804688 155.070312 205.449219 C 155.636719 205.09375 156.257812 204.75 156.925781 204.417969 C 157.59375 204.082031 158.3125 203.761719 159.074219 203.449219 C 159.839844 203.140625 160.648438 202.84375 161.5 202.558594 C 162.351562 202.273438 163.242188 202.003906 164.171875 201.75 C 165.101562 201.496094 166.070312 201.257812 167.070312 201.035156 C 168.070312 200.808594 169.101562 200.605469 170.164062 200.414062 C 171.226562 200.226562 172.3125 200.054688 173.425781 199.898438 C 174.539062 199.746094 175.671875 199.609375 176.824219 199.496094 C 177.976562 199.378906 179.140625 199.28125 180.324219 199.203125 C 181.503906 199.125 182.695312 199.066406 183.890625 199.027344 C 185.089844 198.984375 186.292969 198.964844 187.496094 198.964844 C 188.699219 198.964844 189.902344 198.984375 191.101562 199.027344 C 192.296875 199.066406 193.488281 199.125 194.667969 199.203125 C 195.851562 199.28125 197.015625 199.378906 198.167969 199.496094 C 199.320312 199.609375 200.453125 199.746094 201.566406 199.898438 C 202.679688 200.054688 203.765625 200.226562 204.828125 200.414062 C 205.890625 200.605469 206.921875 200.808594 207.921875 201.035156 C 208.925781 201.257812 209.890625 201.496094 210.820312 201.75 C 211.75 202.003906 212.644531 202.273438 213.496094 202.558594 C 214.347656 202.84375 215.152344 203.140625 215.917969 203.449219 C 216.679688 203.761719 217.398438 204.082031 218.066406 204.417969 C 218.734375 204.75 219.355469 205.09375 219.921875 205.449219 C 220.488281 205.804688 221.003906 206.167969 221.464844 206.539062 C 221.925781 206.910156 222.332031 207.285156 222.679688 207.671875 C 223.03125 208.054688 223.320312 208.445312 223.554688 208.839844 C 223.792969 209.230469 223.96875 209.628906 224.085938 210.027344 C 224.203125 210.429688 224.261719 210.828125 224.261719 211.230469 Z M 224.261719 211.230469 "/></g><path style=" stroke:none;fill-rule:evenodd;fill:#008080;fill-opacity:1;" d="M 211.375 126.496094 C 198.1875 113.304688 176.804688 113.304688 163.617188 126.496094 C 152.230469 137.882812 150.46875 155.722656 159.398438 169.121094 L 187.496094 211.257812 L 215.59375 169.121094 C 224.527344 155.722656 222.761719 137.882812 211.375 126.496094 Z M 187.496094 167.300781 C 197.136719 167.300781 204.949219 159.484375 204.949219 149.84375 C 204.949219 140.203125 197.136719 132.386719 187.496094 132.386719 C 177.855469 132.386719 170.042969 140.203125 170.042969 149.84375 C 170.042969 159.484375 177.855469 167.300781 187.496094 167.300781 Z M 187.496094 167.300781 "/><path style=" stroke:none;fill-rule:nonzero;fill:#0a4b5e;fill-opacity:1;" d="M 192.859375 159.007812 C 192.632812 159.007812 192.449219 158.824219 192.449219 158.597656 L 192.449219 152.476562 C 192.449219 152.25 192.632812 152.066406 192.859375 152.066406 C 193.085938 152.066406 193.269531 152.25 193.269531 152.476562 L 193.269531 158.597656 C 193.269531 158.824219 193.085938 159.007812 192.859375 159.007812 Z M 192.859375 159.007812 "/><path style=" stroke:none;fill-rule:nonzero;fill:#0a4b5e;fill-opacity:1;" d="M 182.085938 159.007812 C 181.859375 159.007812 181.675781 158.824219 181.675781 158.597656 L 181.675781 155.257812 C 181.675781 155.03125 181.859375 154.847656 182.085938 154.847656 L 192.859375 154.847656 C 193.085938 154.847656 193.269531 155.03125 193.269531 155.257812 C 193.269531 155.484375 193.085938 155.667969 192.859375 155.667969 L 182.496094 155.667969 L 182.496094 158.597656 C 182.496094 158.824219 182.3125 159.007812 182.085938 159.007812 Z M 182.085938 159.007812 "/><path style=" stroke:none;fill-rule:nonzero;fill:#0a4b5e;fill-opacity:1;" d="M 190.886719 155.667969 C 190.660156 155.667969 190.476562 155.484375 190.476562 155.257812 C 190.476562 154 191.5 152.976562 192.757812 152.976562 L 192.859375 152.976562 C 193.085938 152.976562 193.269531 153.160156 193.269531 153.386719 C 193.269531 153.613281 193.085938 153.796875 192.859375 153.796875 L 192.757812 153.796875 C 191.953125 153.796875 191.296875 154.453125 191.296875 155.257812 C 191.296875 155.484375 191.113281 155.667969 190.886719 155.667969 Z M 190.886719 155.667969 "/><path style=" stroke:none;fill-rule:nonzero;fill:#0a4b5e;fill-opacity:1;" d="M 192.859375 157.542969 L 182.085938 157.542969 C 181.859375 157.542969 181.675781 157.355469 181.675781 157.128906 C 181.675781 156.902344 181.859375 156.71875 182.085938 156.71875 L 192.859375 156.71875 C 193.085938 156.71875 193.269531 156.902344 193.269531 157.128906 C 193.269531 157.355469 193.085938 157.542969 192.859375 157.542969 Z M 192.859375 157.542969 "/><path style=" stroke:none;fill-rule:nonzero;fill:#0a4b5e;fill-opacity:1;" d="M 195.722656 161.789062 L 179.238281 161.789062 C 178.898438 161.789062 178.578125 161.65625 178.335938 161.417969 C 178.09375 161.175781 177.964844 160.855469 177.964844 160.511719 L 177.976562 147.992188 C 177.976562 147.765625 178.160156 147.582031 178.386719 147.582031 C 178.613281 147.582031 178.796875 147.765625 178.796875 147.992188 L 178.785156 160.515625 C 178.785156 160.636719 178.832031 160.75 178.917969 160.835938 C 179.003906 160.921875 179.117188 160.96875 179.238281 160.96875 L 195.722656 160.96875 C 195.976562 160.96875 196.179688 160.765625 196.179688 160.515625 L 196.191406 147.984375 C 196.191406 147.757812 196.378906 147.574219 196.601562 147.574219 C 196.605469 147.574219 196.605469 147.574219 196.605469 147.574219 C 196.832031 147.574219 197.015625 147.757812 197.015625 147.984375 L 197 160.515625 C 197 161.21875 196.425781 161.789062 195.722656 161.789062 Z M 195.722656 161.789062 "/><g clip-rule="nonzero" clip-path="url(#ac31093bc4)"><path style=" stroke:none;fill-rule:nonzero;fill:#0a4b5e;fill-opacity:1;" d="M 177.253906 149.089844 C 176.875 149.089844 176.492188 148.945312 176.203125 148.65625 C 175.625 148.074219 175.628906 147.132812 176.207031 146.558594 L 186.46875 136.3125 C 186.746094 136.035156 187.121094 135.878906 187.515625 135.878906 C 187.914062 135.878906 188.285156 136.035156 188.566406 136.316406 L 198.789062 146.558594 C 199.367188 147.136719 199.367188 148.078125 198.789062 148.65625 C 198.210938 149.234375 197.269531 149.234375 196.691406 148.652344 L 187.980469 139.929688 C 187.722656 139.671875 187.304688 139.671875 187.042969 139.929688 L 178.300781 148.65625 C 178.011719 148.945312 177.632812 149.089844 177.253906 149.089844 Z M 187.515625 136.699219 C 187.339844 136.699219 187.171875 136.769531 187.046875 136.894531 L 176.785156 147.136719 C 176.527344 147.394531 176.527344 147.816406 176.785156 148.074219 L 176.496094 148.363281 L 176.785156 148.074219 C 177.042969 148.332031 177.464844 148.335938 177.722656 148.074219 L 186.464844 139.347656 C 187.042969 138.769531 187.984375 138.773438 188.5625 139.351562 L 197.269531 148.074219 C 197.394531 148.199219 197.5625 148.269531 197.738281 148.269531 C 197.738281 148.269531 197.738281 148.269531 197.742188 148.269531 C 197.917969 148.269531 198.082031 148.199219 198.207031 148.074219 C 198.46875 147.816406 198.46875 147.394531 198.210938 147.136719 L 187.984375 136.894531 C 187.859375 136.769531 187.695312 136.699219 187.515625 136.699219 Z M 187.515625 136.699219 "/></g><path style=" stroke:none;fill-rule:nonzero;fill:#0a4b5e;fill-opacity:1;" d="M 179.351562 144.40625 C 179.125 144.40625 178.941406 144.222656 178.941406 143.996094 L 178.941406 139.324219 C 178.941406 139.097656 179.125 138.914062 179.351562 138.914062 L 181.074219 138.914062 C 181.300781 138.914062 181.484375 139.097656 181.484375 139.324219 L 181.484375 142.277344 C 181.484375 142.503906 181.300781 142.6875 181.074219 142.6875 C 180.847656 142.6875 180.664062 142.503906 180.664062 142.277344 L 180.664062 139.734375 L 179.761719 139.734375 L 179.761719 143.996094 C 179.761719 144.222656 179.578125 144.40625 179.351562 144.40625 Z M 179.351562 144.40625 "/><path style=" stroke:none;fill-rule:nonzero;fill:#0a4b5e;fill-opacity:1;" d="M 185.070312 151.773438 C 183.195312 151.773438 181.675781 150.25 181.675781 148.378906 C 181.675781 146.507812 183.199219 144.984375 185.070312 144.984375 C 186.941406 144.984375 188.464844 146.507812 188.464844 148.378906 C 188.464844 150.25 186.941406 151.773438 185.070312 151.773438 Z M 185.070312 145.804688 C 183.648438 145.804688 182.496094 146.960938 182.496094 148.378906 C 182.496094 149.796875 183.648438 150.953125 185.070312 150.953125 C 186.488281 150.953125 187.644531 149.796875 187.644531 148.378906 C 187.644531 146.960938 186.488281 145.804688 185.070312 145.804688 Z M 185.070312 145.804688 "/><path style=" stroke:none;fill-rule:nonzero;fill:#0a4b5e;fill-opacity:1;" d="M 186.03125 148.789062 L 185.070312 148.789062 C 184.84375 148.789062 184.660156 148.605469 184.660156 148.378906 L 184.660156 146.8125 C 184.660156 146.585938 184.84375 146.402344 185.070312 146.402344 C 185.296875 146.402344 185.480469 146.585938 185.480469 146.8125 L 185.480469 147.96875 L 186.03125 147.96875 C 186.257812 147.96875 186.441406 148.152344 186.441406 148.378906 C 186.441406 148.605469 186.257812 148.789062 186.03125 148.789062 Z M 186.03125 148.789062 "/></g></svg>