<svg xmlns="http://www.w3.org/2000/svg" xmlns:xlink="http://www.w3.org/1999/xlink" width="350" zoomAndPan="magnify" viewBox="0 0 262.5 374.999991" height="500" preserveAspectRatio="xMidYMid meet" version="1.2"><defs><clipPath id="9a5a7e9293"><path d="M 6 291 L 256 291 L 256 374.640625 L 6 374.640625 Z M 6 291 "/></clipPath><clipPath id="6b0ce7ca67"><path d="M 89.957031 71.425781 L 171.472656 71.425781 L 171.472656 168.222656 L 89.957031 168.222656 Z M 89.957031 71.425781 "/></clipPath></defs><g id="82814f3f8c"><g clip-rule="nonzero" clip-path="url(#9a5a7e9293)"><path style=" stroke:none;fill-rule:nonzero;fill:#8bbfc1;fill-opacity:1;" d="M 255.859375 332.945312 C 255.859375 333.625 255.8125 334.308594 255.710938 334.988281 C 255.609375 335.667969 255.460938 336.347656 255.257812 337.027344 C 255.058594 337.707031 254.808594 338.382812 254.507812 339.054688 C 254.210938 339.730469 253.859375 340.402344 253.460938 341.070312 C 253.0625 341.738281 252.613281 342.402344 252.117188 343.066406 C 251.621094 343.726562 251.078125 344.382812 250.484375 345.035156 C 249.890625 345.6875 249.25 346.335938 248.5625 346.976562 C 247.871094 347.617188 247.136719 348.253906 246.355469 348.882812 C 245.574219 349.515625 244.746094 350.136719 243.871094 350.753906 C 242.996094 351.371094 242.078125 351.976562 241.117188 352.578125 C 240.152344 353.179688 239.144531 353.773438 238.09375 354.359375 C 237.042969 354.941406 235.953125 355.519531 234.816406 356.085938 C 233.679688 356.652344 232.503906 357.210938 231.285156 357.757812 C 230.070312 358.304688 228.8125 358.84375 227.515625 359.367188 C 226.21875 359.894531 224.886719 360.410156 223.511719 360.917969 C 222.140625 361.421875 220.730469 361.914062 219.285156 362.398438 C 217.839844 362.878906 216.363281 363.351562 214.847656 363.808594 C 213.332031 364.265625 211.785156 364.710938 210.207031 365.144531 C 208.625 365.574219 207.015625 365.996094 205.375 366.402344 C 203.734375 366.808594 202.0625 367.199219 200.363281 367.578125 C 198.664062 367.957031 196.9375 368.320312 195.183594 368.671875 C 193.433594 369.023438 191.65625 369.359375 189.851562 369.679688 C 188.050781 370 186.226562 370.308594 184.378906 370.597656 C 182.53125 370.890625 180.664062 371.167969 178.773438 371.425781 C 176.886719 371.6875 174.980469 371.933594 173.054688 372.164062 C 171.132812 372.394531 169.191406 372.605469 167.238281 372.804688 C 165.28125 373.003906 163.3125 373.183594 161.328125 373.347656 C 159.347656 373.515625 157.355469 373.664062 155.347656 373.796875 C 153.34375 373.929688 151.332031 374.046875 149.3125 374.148438 C 147.289062 374.246094 145.261719 374.332031 143.226562 374.398438 C 141.195312 374.464844 139.15625 374.515625 137.113281 374.546875 C 135.074219 374.582031 133.03125 374.597656 130.988281 374.597656 C 128.945312 374.597656 126.902344 374.582031 124.859375 374.546875 C 122.820312 374.515625 120.78125 374.464844 118.75 374.398438 C 116.714844 374.332031 114.6875 374.246094 112.664062 374.148438 C 110.644531 374.046875 108.628906 373.929688 106.625 373.796875 C 104.621094 373.664062 102.628906 373.515625 100.644531 373.347656 C 98.664062 373.183594 96.695312 373.003906 94.738281 372.804688 C 92.785156 372.605469 90.84375 372.394531 88.917969 372.164062 C 86.996094 371.933594 85.089844 371.6875 83.199219 371.425781 C 81.3125 371.167969 79.445312 370.890625 77.597656 370.597656 C 75.75 370.308594 73.925781 370 72.125 369.679688 C 70.320312 369.359375 68.542969 369.023438 66.789062 368.671875 C 65.039062 368.320312 63.3125 367.957031 61.613281 367.578125 C 59.914062 367.199219 58.242188 366.808594 56.601562 366.402344 C 54.960938 365.996094 53.347656 365.574219 51.769531 365.144531 C 50.191406 364.710938 48.644531 364.265625 47.128906 363.808594 C 45.613281 363.351562 44.132812 362.878906 42.691406 362.398438 C 41.246094 361.914062 39.835938 361.421875 38.464844 360.917969 C 37.089844 360.410156 35.757812 359.894531 34.460938 359.367188 C 33.164062 358.84375 31.90625 358.304688 30.6875 357.757812 C 29.472656 357.210938 28.296875 356.652344 27.160156 356.085938 C 26.023438 355.519531 24.929688 354.941406 23.882812 354.359375 C 22.832031 353.773438 21.824219 353.179688 20.859375 352.578125 C 19.898438 351.976562 18.976562 351.371094 18.105469 350.753906 C 17.230469 350.136719 16.402344 349.515625 15.621094 348.882812 C 14.839844 348.253906 14.101562 347.617188 13.414062 346.976562 C 12.726562 346.335938 12.085938 345.6875 11.492188 345.035156 C 10.898438 344.382812 10.355469 343.726562 9.855469 343.066406 C 9.359375 342.402344 8.914062 341.738281 8.515625 341.070312 C 8.117188 340.402344 7.765625 339.730469 7.464844 339.054688 C 7.167969 338.382812 6.917969 337.707031 6.714844 337.027344 C 6.515625 336.347656 6.367188 335.667969 6.265625 334.988281 C 6.164062 334.308594 6.113281 333.625 6.113281 332.945312 C 6.113281 332.261719 6.164062 331.582031 6.265625 330.898438 C 6.367188 330.21875 6.515625 329.539062 6.714844 328.863281 C 6.917969 328.183594 7.167969 327.507812 7.464844 326.832031 C 7.765625 326.15625 8.117188 325.488281 8.515625 324.816406 C 8.914062 324.148438 9.359375 323.484375 9.855469 322.824219 C 10.355469 322.160156 10.898438 321.503906 11.492188 320.851562 C 12.085938 320.199219 12.726562 319.554688 13.414062 318.910156 C 14.101562 318.269531 14.839844 317.632812 15.621094 317.003906 C 16.402344 316.375 17.230469 315.75 18.105469 315.136719 C 18.976562 314.519531 19.898438 313.910156 20.859375 313.308594 C 21.824219 312.707031 22.832031 312.113281 23.878906 311.53125 C 24.929688 310.945312 26.023438 310.371094 27.160156 309.800781 C 28.296875 309.234375 29.472656 308.679688 30.6875 308.132812 C 31.90625 307.582031 33.164062 307.046875 34.460938 306.519531 C 35.757812 305.992188 37.089844 305.476562 38.464844 304.972656 C 39.835938 304.464844 41.246094 303.972656 42.691406 303.492188 C 44.132812 303.007812 45.613281 302.539062 47.128906 302.082031 C 48.644531 301.625 50.191406 301.179688 51.769531 300.746094 C 53.347656 300.3125 54.960938 299.894531 56.601562 299.488281 C 58.242188 299.082031 59.914062 298.6875 61.613281 298.308594 C 63.3125 297.933594 65.039062 297.566406 66.789062 297.214844 C 68.542969 296.867188 70.320312 296.53125 72.125 296.210938 C 73.925781 295.886719 75.75 295.582031 77.597656 295.289062 C 79.445312 295 81.3125 294.722656 83.199219 294.460938 C 85.089844 294.199219 86.996094 293.957031 88.917969 293.726562 C 90.84375 293.496094 92.785156 293.28125 94.738281 293.085938 C 96.695312 292.886719 98.664062 292.703125 100.644531 292.539062 C 102.628906 292.375 104.621094 292.222656 106.625 292.089844 C 108.628906 291.957031 110.644531 291.839844 112.664062 291.742188 C 114.6875 291.640625 116.714844 291.558594 118.75 291.492188 C 120.78125 291.425781 122.820312 291.375 124.859375 291.339844 C 126.902344 291.308594 128.945312 291.289062 130.988281 291.289062 C 133.03125 291.289062 135.074219 291.308594 137.113281 291.339844 C 139.15625 291.375 141.195312 291.425781 143.226562 291.492188 C 145.261719 291.558594 147.289062 291.640625 149.3125 291.742188 C 151.332031 291.839844 153.34375 291.957031 155.347656 292.089844 C 157.355469 292.222656 159.347656 292.375 161.328125 292.539062 C 163.3125 292.703125 165.28125 292.886719 167.238281 293.085938 C 169.191406 293.28125 171.132812 293.496094 173.054688 293.726562 C 174.980469 293.957031 176.886719 294.199219 178.773438 294.460938 C 180.664062 294.722656 182.53125 295 184.378906 295.289062 C 186.226562 295.582031 188.050781 295.886719 189.851562 296.210938 C 191.65625 296.53125 193.433594 296.867188 195.183594 297.214844 C 196.9375 297.566406 198.664062 297.933594 200.363281 298.308594 C 202.0625 298.6875 203.734375 299.082031 205.375 299.488281 C 207.015625 299.894531 208.625 300.3125 210.207031 300.746094 C 211.785156 301.179688 213.332031 301.625 214.847656 302.082031 C 216.363281 302.539062 217.839844 303.007812 219.285156 303.492188 C 220.730469 303.972656 222.140625 304.464844 223.511719 304.972656 C 224.886719 305.476562 226.21875 305.992188 227.515625 306.519531 C 228.8125 307.046875 230.070312 307.582031 231.285156 308.132812 C 232.503906 308.679688 233.679688 309.234375 234.816406 309.800781 C 235.953125 310.371094 237.042969 310.945312 238.09375 311.53125 C 239.144531 312.113281 240.152344 312.707031 241.117188 313.308594 C 242.078125 313.910156 242.996094 314.519531 243.871094 315.136719 C 244.746094 315.75 245.574219 316.375 246.355469 317.003906 C 247.136719 317.632812 247.871094 318.269531 248.5625 318.910156 C 249.25 319.554688 249.890625 320.199219 250.484375 320.851562 C 251.078125 321.503906 251.621094 322.160156 252.117188 322.824219 C 252.613281 323.484375 253.0625 324.148438 253.460938 324.816406 C 253.859375 325.488281 254.210938 326.15625 254.507812 326.832031 C 254.808594 327.507812 255.058594 328.183594 255.257812 328.863281 C 255.460938 329.539062 255.609375 330.21875 255.710938 330.898438 C 255.8125 331.582031 255.859375 332.261719 255.859375 332.945312 Z M 255.859375 332.945312 "/></g><path style=" stroke:none;fill-rule:evenodd;fill:#2a76a2;fill-opacity:1;" d="M 212.09375 45.15625 C 167.300781 0.355469 94.675781 0.355469 49.882812 45.15625 C 11.21875 83.828125 5.222656 144.421875 35.5625 189.921875 L 130.988281 333.03125 L 226.414062 189.921875 C 256.753906 144.421875 250.757812 83.828125 212.09375 45.15625 Z M 130.988281 183.742188 C 163.726562 183.742188 190.269531 157.195312 190.269531 124.453125 C 190.269531 91.707031 163.726562 65.164062 130.988281 65.164062 C 98.25 65.164062 71.707031 91.707031 71.707031 124.453125 C 71.707031 157.195312 98.25 183.742188 130.988281 183.742188 Z M 130.988281 183.742188 "/><g clip-rule="nonzero" clip-path="url(#6b0ce7ca67)"><path style=" stroke:none;fill-rule:evenodd;fill:#2b2a29;fill-opacity:1;" d="M 126.9375 118.976562 C 130.222656 117.414062 134.265625 118.003906 136.980469 120.746094 C 139.695312 123.488281 140.28125 127.566406 138.730469 130.882812 L 147.832031 144.351562 L 134.492188 135.164062 C 131.207031 136.726562 127.167969 136.136719 124.449219 133.394531 C 121.734375 130.652344 121.152344 126.574219 122.699219 123.257812 L 113.601562 109.789062 Z M 129.148438 125.488281 C 130.015625 124.613281 131.417969 124.613281 132.28125 125.488281 C 133.144531 126.363281 133.144531 127.777344 132.28125 128.652344 C 131.417969 129.523438 130.015625 129.523438 129.148438 128.652344 C 128.285156 127.777344 128.285156 126.363281 129.148438 125.488281 Z M 135.160156 86.164062 C 155.578125 88.398438 171.46875 105.859375 171.46875 127.070312 C 171.46875 149.796875 153.222656 168.222656 130.714844 168.222656 C 108.207031 168.222656 89.960938 149.796875 89.960938 127.070312 C 89.960938 105.859375 105.855469 88.398438 126.269531 86.164062 C 124.140625 84.71875 122.742188 82.261719 122.742188 79.476562 C 122.742188 75.03125 126.3125 71.425781 130.714844 71.425781 C 135.117188 71.425781 138.6875 75.03125 138.6875 79.476562 C 138.6875 82.261719 137.289062 84.71875 135.160156 86.164062 Z M 130.714844 73.214844 C 134.140625 73.214844 136.917969 76.019531 136.917969 79.476562 C 136.917969 82.9375 134.140625 85.738281 130.714844 85.738281 C 127.289062 85.738281 124.511719 82.9375 124.511719 79.476562 C 124.511719 76.019531 127.289062 73.214844 130.714844 73.214844 Z M 99.734375 125.726562 L 109.144531 125.726562 C 109.878906 125.726562 110.472656 126.328125 110.472656 127.070312 C 110.472656 127.8125 109.878906 128.410156 109.144531 128.410156 L 99.734375 128.410156 C 100.414062 144.636719 113.316406 157.667969 129.386719 158.351562 L 129.386719 148.851562 C 129.386719 148.109375 129.980469 147.507812 130.714844 147.507812 C 131.449219 147.507812 132.042969 148.109375 132.042969 148.851562 L 132.042969 158.351562 C 148.113281 157.667969 161.015625 144.636719 161.695312 128.410156 L 152.285156 128.410156 C 151.550781 128.410156 150.957031 127.8125 150.957031 127.070312 C 150.957031 126.328125 151.550781 125.726562 152.285156 125.726562 L 161.695312 125.726562 C 161.015625 109.503906 148.113281 96.472656 132.042969 95.789062 L 132.042969 105.289062 C 132.042969 106.03125 131.449219 106.632812 130.714844 106.632812 C 129.980469 106.632812 129.386719 106.03125 129.386719 105.289062 L 129.386719 95.789062 C 113.316406 96.472656 100.414062 109.503906 99.734375 125.726562 Z M 99.734375 125.726562 "/></g></g></svg>