<svg xmlns="http://www.w3.org/2000/svg" xmlns:xlink="http://www.w3.org/1999/xlink" width="500" zoomAndPan="magnify" viewBox="0 0 375 374.999991" height="500" preserveAspectRatio="xMidYMid meet" version="1.2"><defs><clipPath id="8e3ba7a6e7"><path d="M 150.453125 198 L 224.703125 198 L 224.703125 223.554688 L 150.453125 223.554688 Z M 150.453125 198 "/></clipPath><clipPath id="1c2c198404"><path d="M 175.414062 134.230469 L 199.414062 134.230469 L 199.414062 162.730469 L 175.414062 162.730469 Z M 175.414062 134.230469 "/></clipPath></defs><g id="dca5234c64"><g clip-rule="nonzero" clip-path="url(#8e3ba7a6e7)"><path style=" stroke:none;fill-rule:nonzero;fill:#8bbfc1;fill-opacity:1;" d="M 224.261719 211.230469 C 224.261719 211.632812 224.203125 212.03125 224.085938 212.433594 C 223.96875 212.832031 223.792969 213.230469 223.554688 213.625 C 223.320312 214.015625 223.03125 214.40625 222.679688 214.789062 C 222.332031 215.175781 221.925781 215.554688 221.464844 215.925781 C 221.003906 216.296875 220.488281 216.65625 219.921875 217.011719 C 219.355469 217.367188 218.734375 217.710938 218.066406 218.042969 C 217.398438 218.378906 216.679688 218.699219 215.917969 219.011719 C 215.152344 219.320312 214.347656 219.617188 213.496094 219.902344 C 212.644531 220.1875 211.75 220.457031 210.820312 220.710938 C 209.890625 220.964844 208.925781 221.203125 207.921875 221.429688 C 206.921875 221.652344 205.890625 221.855469 204.828125 222.046875 C 203.765625 222.234375 202.679688 222.40625 201.566406 222.5625 C 200.453125 222.714844 199.320312 222.851562 198.167969 222.964844 C 197.015625 223.082031 195.851562 223.179688 194.667969 223.257812 C 193.488281 223.335938 192.296875 223.394531 191.101562 223.4375 C 189.902344 223.476562 188.699219 223.496094 187.496094 223.496094 C 186.292969 223.496094 185.089844 223.476562 183.890625 223.4375 C 182.695312 223.394531 181.503906 223.335938 180.324219 223.257812 C 179.140625 223.179688 177.976562 223.082031 176.824219 222.964844 C 175.671875 222.851562 174.539062 222.714844 173.425781 222.5625 C 172.3125 222.40625 171.226562 222.234375 170.164062 222.046875 C 169.101562 221.855469 168.070312 221.652344 167.070312 221.429688 C 166.070312 221.203125 165.101562 220.964844 164.171875 220.710938 C 163.242188 220.457031 162.351562 220.1875 161.5 219.902344 C 160.648438 219.617188 159.839844 219.320312 159.074219 219.011719 C 158.3125 218.699219 157.59375 218.378906 156.925781 218.042969 C 156.257812 217.710938 155.636719 217.367188 155.070312 217.011719 C 154.503906 216.65625 153.988281 216.296875 153.527344 215.925781 C 153.066406 215.554688 152.664062 215.175781 152.3125 214.789062 C 151.964844 214.40625 151.671875 214.015625 151.4375 213.625 C 151.199219 213.230469 151.023438 212.832031 150.90625 212.433594 C 150.789062 212.03125 150.730469 211.632812 150.730469 211.230469 C 150.730469 210.828125 150.789062 210.429688 150.90625 210.027344 C 151.023438 209.628906 151.199219 209.230469 151.4375 208.839844 C 151.671875 208.445312 151.964844 208.054688 152.3125 207.671875 C 152.664062 207.285156 153.066406 206.910156 153.527344 206.539062 C 153.988281 206.167969 154.503906 205.804688 155.070312 205.449219 C 155.636719 205.09375 156.257812 204.75 156.925781 204.417969 C 157.59375 204.082031 158.3125 203.761719 159.074219 203.449219 C 159.839844 203.140625 160.648438 202.84375 161.5 202.558594 C 162.351562 202.273438 163.242188 202.003906 164.171875 201.75 C 165.101562 201.496094 166.070312 201.257812 167.070312 201.035156 C 168.070312 200.808594 169.101562 200.605469 170.164062 200.414062 C 171.226562 200.226562 172.3125 200.054688 173.425781 199.898438 C 174.539062 199.746094 175.671875 199.609375 176.824219 199.496094 C 177.976562 199.378906 179.140625 199.28125 180.324219 199.203125 C 181.503906 199.125 182.695312 199.066406 183.890625 199.027344 C 185.089844 198.984375 186.292969 198.964844 187.496094 198.964844 C 188.699219 198.964844 189.902344 198.984375 191.101562 199.027344 C 192.296875 199.066406 193.488281 199.125 194.667969 199.203125 C 195.851562 199.28125 197.015625 199.378906 198.167969 199.496094 C 199.320312 199.609375 200.453125 199.746094 201.566406 199.898438 C 202.679688 200.054688 203.765625 200.226562 204.828125 200.414062 C 205.890625 200.605469 206.921875 200.808594 207.921875 201.035156 C 208.925781 201.257812 209.890625 201.496094 210.820312 201.75 C 211.75 202.003906 212.644531 202.273438 213.496094 202.558594 C 214.347656 202.84375 215.152344 203.140625 215.917969 203.449219 C 216.679688 203.761719 217.398438 204.082031 218.066406 204.417969 C 218.734375 204.75 219.355469 205.09375 219.921875 205.449219 C 220.488281 205.804688 221.003906 206.167969 221.464844 206.539062 C 221.925781 206.910156 222.332031 207.285156 222.679688 207.671875 C 223.03125 208.054688 223.320312 208.445312 223.554688 208.839844 C 223.792969 209.230469 223.96875 209.628906 224.085938 210.027344 C 224.203125 210.429688 224.261719 210.828125 224.261719 211.230469 Z M 224.261719 211.230469 "/></g><path style=" stroke:none;fill-rule:evenodd;fill:#2a76a2;fill-opacity:1;" d="M 211.375 126.496094 C 198.1875 113.304688 176.804688 113.304688 163.617188 126.496094 C 152.230469 137.882812 150.46875 155.722656 159.398438 169.121094 L 187.496094 211.257812 L 215.59375 169.121094 C 224.527344 155.722656 222.761719 137.882812 211.375 126.496094 Z M 187.496094 167.300781 C 197.136719 167.300781 204.949219 159.484375 204.949219 149.84375 C 204.949219 140.203125 197.136719 132.386719 187.496094 132.386719 C 177.855469 132.386719 170.042969 140.203125 170.042969 149.84375 C 170.042969 159.484375 177.855469 167.300781 187.496094 167.300781 Z M 187.496094 167.300781 "/><g clip-rule="nonzero" clip-path="url(#1c2c198404)"><path style=" stroke:none;fill-rule:evenodd;fill:#2b2a29;fill-opacity:1;" d="M 186.304688 148.230469 C 187.269531 147.769531 188.460938 147.945312 189.261719 148.75 C 190.058594 149.558594 190.230469 150.761719 189.777344 151.738281 L 192.457031 155.703125 L 188.527344 152.996094 C 187.5625 153.457031 186.371094 153.285156 185.570312 152.476562 C 184.773438 151.667969 184.601562 150.46875 185.054688 149.492188 L 182.375 145.527344 Z M 186.953125 150.148438 C 187.210938 149.890625 187.621094 149.890625 187.878906 150.148438 C 188.132812 150.40625 188.132812 150.824219 187.878906 151.078125 C 187.621094 151.335938 187.210938 151.335938 186.953125 151.078125 C 186.699219 150.824219 186.699219 150.40625 186.953125 150.148438 Z M 188.722656 138.570312 C 194.734375 139.226562 199.414062 144.367188 199.414062 150.613281 C 199.414062 157.304688 194.042969 162.730469 187.414062 162.730469 C 180.789062 162.730469 175.417969 157.304688 175.417969 150.613281 C 175.417969 144.367188 180.097656 139.226562 186.105469 138.570312 C 185.480469 138.144531 185.066406 137.421875 185.066406 136.601562 C 185.066406 135.292969 186.121094 134.230469 187.414062 134.230469 C 188.710938 134.230469 189.765625 135.292969 189.765625 136.601562 C 189.765625 137.421875 189.351562 138.144531 188.722656 138.570312 Z M 187.414062 134.757812 C 188.425781 134.757812 189.242188 135.582031 189.242188 136.601562 C 189.242188 137.621094 188.425781 138.445312 187.414062 138.445312 C 186.40625 138.445312 185.589844 137.621094 185.589844 136.601562 C 185.589844 135.582031 186.40625 134.757812 187.414062 134.757812 Z M 178.292969 150.21875 L 181.066406 150.21875 C 181.28125 150.21875 181.457031 150.394531 181.457031 150.613281 C 181.457031 150.832031 181.28125 151.007812 181.066406 151.007812 L 178.292969 151.007812 C 178.496094 155.785156 182.292969 159.621094 187.023438 159.824219 L 187.023438 157.027344 C 187.023438 156.808594 187.199219 156.632812 187.414062 156.632812 C 187.632812 156.632812 187.808594 156.808594 187.808594 157.027344 L 187.808594 159.824219 C 192.539062 159.621094 196.335938 155.785156 196.539062 151.007812 L 193.765625 151.007812 C 193.550781 151.007812 193.375 150.832031 193.375 150.613281 C 193.375 150.394531 193.550781 150.21875 193.765625 150.21875 L 196.539062 150.21875 C 196.335938 145.441406 192.539062 141.605469 187.808594 141.402344 L 187.808594 144.203125 C 187.808594 144.417969 187.632812 144.597656 187.414062 144.597656 C 187.199219 144.597656 187.023438 144.417969 187.023438 144.203125 L 187.023438 141.402344 C 182.292969 141.605469 178.496094 145.441406 178.292969 150.21875 Z M 178.292969 150.21875 "/></g></g></svg>