<svg xmlns="http://www.w3.org/2000/svg" xmlns:xlink="http://www.w3.org/1999/xlink" width="500" zoomAndPan="magnify" viewBox="0 0 375 374.999991" height="500" preserveAspectRatio="xMidYMid meet" version="1.2"><defs><clipPath id="4c0e0ddaa7"><path d="M 150.453125 204 L 224.703125 204 L 224.703125 229.546875 L 150.453125 229.546875 Z M 150.453125 204 "/></clipPath><clipPath id="5dad31a723"><path d="M 175.625 141.871094 L 199.625 141.871094 L 199.625 156 L 175.625 156 Z M 175.625 141.871094 "/></clipPath></defs><g id="c4d2c8ed1c"><g clip-rule="nonzero" clip-path="url(#4c0e0ddaa7)"><path style=" stroke:none;fill-rule:nonzero;fill:#8d8f84;fill-opacity:1;" d="M 224.261719 217.222656 C 224.261719 217.621094 224.203125 218.023438 224.085938 218.421875 C 223.96875 218.824219 223.792969 219.21875 223.554688 219.613281 C 223.320312 220.007812 223.03125 220.398438 222.679688 220.78125 C 222.332031 221.164062 221.925781 221.542969 221.464844 221.914062 C 221.003906 222.285156 220.488281 222.648438 219.921875 223.003906 C 219.355469 223.355469 218.734375 223.699219 218.066406 224.035156 C 217.398438 224.367188 216.679688 224.691406 215.917969 225 C 215.152344 225.3125 214.347656 225.609375 213.496094 225.894531 C 212.644531 226.175781 211.75 226.445312 210.820312 226.703125 C 209.890625 226.957031 208.925781 227.195312 207.921875 227.417969 C 206.921875 227.640625 205.890625 227.847656 204.828125 228.039062 C 203.765625 228.226562 202.679688 228.398438 201.566406 228.550781 C 200.453125 228.707031 199.320312 228.839844 198.167969 228.957031 C 197.015625 229.074219 195.851562 229.171875 194.667969 229.25 C 193.488281 229.328125 192.296875 229.386719 191.101562 229.425781 C 189.902344 229.464844 188.699219 229.484375 187.496094 229.484375 C 186.292969 229.484375 185.089844 229.464844 183.890625 229.425781 C 182.695312 229.386719 181.503906 229.328125 180.324219 229.25 C 179.140625 229.171875 177.976562 229.074219 176.824219 228.957031 C 175.671875 228.839844 174.539062 228.707031 173.425781 228.550781 C 172.3125 228.398438 171.226562 228.226562 170.164062 228.039062 C 169.101562 227.847656 168.070312 227.640625 167.070312 227.417969 C 166.070312 227.195312 165.101562 226.957031 164.171875 226.703125 C 163.242188 226.445312 162.351562 226.175781 161.5 225.894531 C 160.648438 225.609375 159.839844 225.3125 159.074219 225 C 158.3125 224.691406 157.59375 224.367188 156.925781 224.035156 C 156.257812 223.699219 155.636719 223.355469 155.070312 223.003906 C 154.503906 222.648438 153.988281 222.285156 153.527344 221.914062 C 153.066406 221.542969 152.664062 221.164062 152.3125 220.78125 C 151.964844 220.398438 151.671875 220.007812 151.4375 219.613281 C 151.199219 219.21875 151.023438 218.824219 150.90625 218.421875 C 150.789062 218.023438 150.730469 217.621094 150.730469 217.222656 C 150.730469 216.820312 150.789062 216.417969 150.90625 216.019531 C 151.023438 215.621094 151.199219 215.222656 151.4375 214.828125 C 151.671875 214.433594 151.964844 214.046875 152.3125 213.660156 C 152.664062 213.277344 153.066406 212.898438 153.527344 212.527344 C 153.988281 212.15625 154.503906 211.792969 155.070312 211.441406 C 155.636719 211.085938 156.257812 210.742188 156.925781 210.40625 C 157.59375 210.074219 158.3125 209.75 159.074219 209.441406 C 159.839844 209.128906 160.648438 208.832031 161.5 208.550781 C 162.351562 208.265625 163.242188 207.996094 164.171875 207.742188 C 165.101562 207.484375 166.070312 207.246094 167.070312 207.023438 C 168.070312 206.800781 169.101562 206.59375 170.164062 206.40625 C 171.226562 206.214844 172.3125 206.042969 173.425781 205.890625 C 174.539062 205.738281 175.671875 205.601562 176.824219 205.484375 C 177.976562 205.367188 179.140625 205.269531 180.324219 205.191406 C 181.503906 205.113281 182.695312 205.054688 183.890625 205.015625 C 185.089844 204.976562 186.292969 204.957031 187.496094 204.957031 C 188.699219 204.957031 189.902344 204.976562 191.101562 205.015625 C 192.296875 205.054688 193.488281 205.113281 194.667969 205.191406 C 195.851562 205.269531 197.015625 205.367188 198.167969 205.484375 C 199.320312 205.601562 200.453125 205.738281 201.566406 205.890625 C 202.679688 206.042969 203.765625 206.214844 204.828125 206.40625 C 205.890625 206.59375 206.921875 206.800781 207.921875 207.023438 C 208.925781 207.246094 209.890625 207.484375 210.820312 207.742188 C 211.75 207.996094 212.644531 208.265625 213.496094 208.550781 C 214.347656 208.832031 215.152344 209.128906 215.917969 209.441406 C 216.679688 209.75 217.398438 210.074219 218.066406 210.40625 C 218.734375 210.742188 219.355469 211.085938 219.921875 211.441406 C 220.488281 211.792969 221.003906 212.15625 221.464844 212.527344 C 221.925781 212.898438 222.332031 213.277344 222.679688 213.660156 C 223.03125 214.046875 223.320312 214.433594 223.554688 214.828125 C 223.792969 215.222656 223.96875 215.621094 224.085938 216.019531 C 224.203125 216.417969 224.261719 216.820312 224.261719 217.222656 Z M 224.261719 217.222656 "/></g><path style=" stroke:none;fill-rule:evenodd;fill:#666666;fill-opacity:1;" d="M 211.375 132.484375 C 198.1875 119.296875 176.804688 119.296875 163.617188 132.484375 C 152.230469 143.871094 150.46875 161.714844 159.398438 175.109375 L 187.496094 217.246094 L 215.59375 175.109375 C 224.527344 161.714844 222.761719 143.871094 211.375 132.484375 Z M 187.496094 173.289062 C 197.136719 173.289062 204.949219 165.476562 204.949219 155.835938 C 204.949219 146.191406 197.136719 138.378906 187.496094 138.378906 C 177.855469 138.378906 170.042969 146.191406 170.042969 155.835938 C 170.042969 165.476562 177.855469 173.289062 187.496094 173.289062 Z M 187.496094 173.289062 "/><path style=" stroke:none;fill-rule:nonzero;fill:#1c2120;fill-opacity:1;" d="M 192.859375 165 C 192.632812 165 192.449219 164.816406 192.449219 164.589844 L 192.449219 158.46875 C 192.449219 158.242188 192.632812 158.058594 192.859375 158.058594 C 193.085938 158.058594 193.269531 158.242188 193.269531 158.46875 L 193.269531 164.589844 C 193.269531 164.816406 193.085938 165 192.859375 165 Z M 192.859375 165 "/><path style=" stroke:none;fill-rule:nonzero;fill:#1c2120;fill-opacity:1;" d="M 182.085938 165 C 181.859375 165 181.675781 164.816406 181.675781 164.589844 L 181.675781 161.25 C 181.675781 161.023438 181.859375 160.839844 182.085938 160.839844 L 192.859375 160.839844 C 193.085938 160.839844 193.269531 161.023438 193.269531 161.25 C 193.269531 161.476562 193.085938 161.660156 192.859375 161.660156 L 182.496094 161.660156 L 182.496094 164.589844 C 182.496094 164.816406 182.3125 165 182.085938 165 Z M 182.085938 165 "/><path style=" stroke:none;fill-rule:nonzero;fill:#1c2120;fill-opacity:1;" d="M 190.886719 161.660156 C 190.660156 161.660156 190.476562 161.476562 190.476562 161.25 C 190.476562 159.992188 191.5 158.96875 192.757812 158.96875 L 192.859375 158.96875 C 193.085938 158.96875 193.269531 159.152344 193.269531 159.378906 C 193.269531 159.605469 193.085938 159.789062 192.859375 159.789062 L 192.757812 159.789062 C 191.953125 159.789062 191.296875 160.445312 191.296875 161.25 C 191.296875 161.476562 191.113281 161.660156 190.886719 161.660156 Z M 190.886719 161.660156 "/><path style=" stroke:none;fill-rule:nonzero;fill:#1c2120;fill-opacity:1;" d="M 192.859375 163.53125 L 182.085938 163.53125 C 181.859375 163.53125 181.675781 163.347656 181.675781 163.121094 C 181.675781 162.894531 181.859375 162.710938 182.085938 162.710938 L 192.859375 162.710938 C 193.085938 162.710938 193.269531 162.894531 193.269531 163.121094 C 193.269531 163.347656 193.085938 163.53125 192.859375 163.53125 Z M 192.859375 163.53125 "/><path style=" stroke:none;fill-rule:nonzero;fill:#1c2120;fill-opacity:1;" d="M 195.722656 167.78125 L 179.238281 167.78125 C 178.898438 167.78125 178.578125 167.648438 178.335938 167.40625 C 178.09375 167.164062 177.964844 166.84375 177.964844 166.503906 L 177.976562 153.980469 C 177.976562 153.753906 178.160156 153.570312 178.386719 153.570312 C 178.613281 153.574219 178.796875 153.757812 178.796875 153.984375 L 178.785156 166.503906 C 178.785156 166.625 178.832031 166.742188 178.917969 166.828125 C 179.003906 166.914062 179.117188 166.960938 179.238281 166.960938 L 195.722656 166.960938 C 195.976562 166.960938 196.179688 166.753906 196.179688 166.503906 L 196.191406 153.976562 C 196.191406 153.75 196.378906 153.566406 196.601562 153.566406 C 196.605469 153.566406 196.605469 153.566406 196.605469 153.566406 C 196.832031 153.566406 197.015625 153.75 197.015625 153.976562 L 197 166.507812 C 197 167.207031 196.425781 167.78125 195.722656 167.78125 Z M 195.722656 167.78125 "/><g clip-rule="nonzero" clip-path="url(#5dad31a723)"><path style=" stroke:none;fill-rule:nonzero;fill:#1c2120;fill-opacity:1;" d="M 177.253906 155.082031 C 176.875 155.082031 176.492188 154.933594 176.203125 154.644531 C 175.625 154.066406 175.628906 153.125 176.207031 152.546875 L 186.46875 142.304688 C 186.746094 142.023438 187.121094 141.871094 187.515625 141.871094 C 187.914062 141.871094 188.285156 142.023438 188.566406 142.304688 L 198.789062 152.546875 C 199.367188 153.125 199.367188 154.066406 198.789062 154.644531 C 198.210938 155.222656 197.269531 155.222656 196.691406 154.644531 L 187.980469 145.921875 C 187.722656 145.664062 187.304688 145.664062 187.042969 145.921875 L 178.300781 154.648438 C 178.011719 154.9375 177.632812 155.082031 177.253906 155.082031 Z M 187.515625 142.691406 C 187.339844 142.691406 187.171875 142.757812 187.046875 142.882812 L 176.785156 153.128906 C 176.527344 153.386719 176.527344 153.808594 176.785156 154.066406 L 176.496094 154.355469 L 176.785156 154.066406 C 177.042969 154.324219 177.464844 154.324219 177.722656 154.066406 L 186.464844 145.339844 C 187.042969 144.761719 187.984375 144.761719 188.5625 145.339844 L 197.269531 154.0625 C 197.394531 154.191406 197.5625 154.257812 197.738281 154.257812 C 197.738281 154.257812 197.738281 154.257812 197.742188 154.257812 C 197.917969 154.257812 198.082031 154.191406 198.207031 154.066406 C 198.46875 153.808594 198.46875 153.386719 198.210938 153.128906 L 187.984375 142.886719 C 187.859375 142.761719 187.695312 142.691406 187.515625 142.691406 Z M 187.515625 142.691406 "/></g><path style=" stroke:none;fill-rule:nonzero;fill:#1c2120;fill-opacity:1;" d="M 179.351562 150.394531 C 179.125 150.394531 178.941406 150.210938 178.941406 149.984375 L 178.941406 145.316406 C 178.941406 145.089844 179.125 144.90625 179.351562 144.90625 L 181.074219 144.90625 C 181.300781 144.90625 181.484375 145.089844 181.484375 145.316406 L 181.484375 148.269531 C 181.484375 148.496094 181.300781 148.679688 181.074219 148.679688 C 180.847656 148.679688 180.664062 148.496094 180.664062 148.269531 L 180.664062 145.726562 L 179.761719 145.726562 L 179.761719 149.984375 C 179.761719 150.210938 179.578125 150.394531 179.351562 150.394531 Z M 179.351562 150.394531 "/><path style=" stroke:none;fill-rule:nonzero;fill:#1c2120;fill-opacity:1;" d="M 185.070312 157.765625 C 183.195312 157.765625 181.675781 156.242188 181.675781 154.371094 C 181.675781 152.496094 183.199219 150.976562 185.070312 150.976562 C 186.941406 150.976562 188.464844 152.496094 188.464844 154.371094 C 188.464844 156.242188 186.941406 157.765625 185.070312 157.765625 Z M 185.070312 151.796875 C 183.648438 151.796875 182.496094 152.949219 182.496094 154.371094 C 182.496094 155.789062 183.648438 156.945312 185.070312 156.945312 C 186.488281 156.945312 187.644531 155.789062 187.644531 154.371094 C 187.644531 152.949219 186.488281 151.796875 185.070312 151.796875 Z M 185.070312 151.796875 "/><path style=" stroke:none;fill-rule:nonzero;fill:#1c2120;fill-opacity:1;" d="M 186.03125 154.78125 L 185.070312 154.78125 C 184.84375 154.78125 184.660156 154.597656 184.660156 154.371094 L 184.660156 152.800781 C 184.660156 152.574219 184.84375 152.390625 185.070312 152.390625 C 185.296875 152.390625 185.480469 152.574219 185.480469 152.800781 L 185.480469 153.960938 L 186.03125 153.960938 C 186.257812 153.960938 186.441406 154.144531 186.441406 154.371094 C 186.441406 154.597656 186.257812 154.78125 186.03125 154.78125 Z M 186.03125 154.78125 "/></g></svg>